<mxfile host="65bd71144e" pages="2">
    <diagram id="_3IJ8k5NUj9pufxb031T" name="Interp_u2v">
        <mxGraphModel dx="554" dy="362" grid="1" gridSize="10" guides="1" tooltips="1" connect="1" arrows="1" fold="1" page="1" pageScale="1" pageWidth="850" pageHeight="1100" math="0" shadow="0">
            <root>
                <mxCell id="0"/>
                <mxCell id="1" parent="0"/>
                <mxCell id="GrzHbech-eeEjeZB8RTP-1" value="" style="endArrow=none;dashed=1;html=1;rounded=0;entryX=1;entryY=0.25;entryDx=0;entryDy=0;strokeWidth=0.3;" edge="1" parent="1" target="GrzHbech-eeEjeZB8RTP-3">
                    <mxGeometry width="50" height="50" relative="1" as="geometry">
                        <mxPoint x="80" y="140" as="sourcePoint"/>
                        <mxPoint x="150" y="90.24" as="targetPoint"/>
                    </mxGeometry>
                </mxCell>
                <mxCell id="GrzHbech-eeEjeZB8RTP-2" value="" style="endArrow=none;dashed=1;html=1;rounded=0;entryX=0;entryY=0.084;entryDx=0;entryDy=0;entryPerimeter=0;strokeWidth=0.3;exitX=1.002;exitY=0.078;exitDx=0;exitDy=0;exitPerimeter=0;" edge="1" parent="1" source="GrzHbech-eeEjeZB8RTP-3" target="GrzHbech-eeEjeZB8RTP-3">
                    <mxGeometry width="50" height="50" relative="1" as="geometry">
                        <mxPoint x="110" y="90" as="sourcePoint"/>
                        <mxPoint x="110" y="330" as="targetPoint"/>
                    </mxGeometry>
                </mxCell>
                <mxCell id="GrzHbech-eeEjeZB8RTP-3" value="" style="rounded=0;whiteSpace=wrap;html=1;" vertex="1" parent="1">
                    <mxGeometry x="80" y="80" width="240" height="240" as="geometry"/>
                </mxCell>
                <mxCell id="GrzHbech-eeEjeZB8RTP-4" value="" style="endArrow=classic;html=1;rounded=0;strokeColor=#CC0000;" edge="1" parent="1">
                    <mxGeometry width="50" height="50" relative="1" as="geometry">
                        <mxPoint x="60" y="365" as="sourcePoint"/>
                        <mxPoint x="340" y="365" as="targetPoint"/>
                    </mxGeometry>
                </mxCell>
                <mxCell id="GrzHbech-eeEjeZB8RTP-5" value="" style="endArrow=classic;html=1;rounded=0;strokeColor=#0000FF;" edge="1" parent="1">
                    <mxGeometry width="50" height="50" relative="1" as="geometry">
                        <mxPoint x="39" y="340" as="sourcePoint"/>
                        <mxPoint x="39" y="40" as="targetPoint"/>
                    </mxGeometry>
                </mxCell>
                <mxCell id="GrzHbech-eeEjeZB8RTP-6" value="" style="endArrow=none;dashed=1;html=1;rounded=0;entryX=0.082;entryY=0;entryDx=0;entryDy=0;entryPerimeter=0;strokeWidth=0.3;exitX=0.082;exitY=0;exitDx=0;exitDy=0;exitPerimeter=0;" edge="1" parent="1" source="GrzHbech-eeEjeZB8RTP-3">
                    <mxGeometry width="50" height="50" relative="1" as="geometry">
                        <mxPoint x="150" y="253" as="sourcePoint"/>
                        <mxPoint x="100" y="320" as="targetPoint"/>
                    </mxGeometry>
                </mxCell>
                <mxCell id="GrzHbech-eeEjeZB8RTP-7" value="" style="endArrow=none;dashed=1;html=1;rounded=0;entryX=0.082;entryY=0;entryDx=0;entryDy=0;entryPerimeter=0;strokeWidth=0.3;" edge="1" parent="1">
                    <mxGeometry width="50" height="50" relative="1" as="geometry">
                        <mxPoint x="140" y="320.24" as="sourcePoint"/>
                        <mxPoint x="140" y="80.24" as="targetPoint"/>
                    </mxGeometry>
                </mxCell>
                <mxCell id="GrzHbech-eeEjeZB8RTP-8" value="" style="group;strokeColor=none;strokeWidth=0.3;" vertex="1" connectable="0" parent="1">
                    <mxGeometry x="80" y="80.23999999999998" width="240" height="239.75999999999988" as="geometry"/>
                </mxCell>
                <mxCell id="GrzHbech-eeEjeZB8RTP-141" value="" style="rounded=0;whiteSpace=wrap;html=1;fillColor=#f8cecc;strokeColor=#b85450;" vertex="1" parent="GrzHbech-eeEjeZB8RTP-8">
                    <mxGeometry x="30" y="167.76" width="60" height="62.24" as="geometry"/>
                </mxCell>
                <mxCell id="GrzHbech-eeEjeZB8RTP-9" value="" style="endArrow=none;html=1;rounded=0;strokeWidth=0.3;" edge="1" parent="GrzHbech-eeEjeZB8RTP-8">
                    <mxGeometry width="50" height="50" relative="1" as="geometry">
                        <mxPoint y="40.000000000000014" as="sourcePoint"/>
                        <mxPoint x="240" y="40.000000000000014" as="targetPoint"/>
                    </mxGeometry>
                </mxCell>
                <mxCell id="GrzHbech-eeEjeZB8RTP-10" value="" style="endArrow=none;html=1;rounded=0;entryX=1.002;entryY=0.333;entryDx=0;entryDy=0;entryPerimeter=0;strokeWidth=0.3;" edge="1" parent="GrzHbech-eeEjeZB8RTP-8" target="GrzHbech-eeEjeZB8RTP-3">
                    <mxGeometry width="50" height="50" relative="1" as="geometry">
                        <mxPoint y="80.00000000000001" as="sourcePoint"/>
                        <mxPoint x="200" y="80.00000000000001" as="targetPoint"/>
                    </mxGeometry>
                </mxCell>
                <mxCell id="GrzHbech-eeEjeZB8RTP-11" value="" style="endArrow=none;html=1;rounded=0;entryX=1;entryY=0.665;entryDx=0;entryDy=0;entryPerimeter=0;strokeWidth=0.3;" edge="1" parent="GrzHbech-eeEjeZB8RTP-8" target="GrzHbech-eeEjeZB8RTP-3">
                    <mxGeometry width="50" height="50" relative="1" as="geometry">
                        <mxPoint y="160" as="sourcePoint"/>
                        <mxPoint x="200" y="160" as="targetPoint"/>
                    </mxGeometry>
                </mxCell>
                <mxCell id="GrzHbech-eeEjeZB8RTP-12" value="" style="endArrow=none;html=1;rounded=0;entryX=1.002;entryY=0.834;entryDx=0;entryDy=0;entryPerimeter=0;strokeWidth=0.3;" edge="1" parent="GrzHbech-eeEjeZB8RTP-8" target="GrzHbech-eeEjeZB8RTP-3">
                    <mxGeometry width="50" height="50" relative="1" as="geometry">
                        <mxPoint y="200" as="sourcePoint"/>
                        <mxPoint x="200" y="200" as="targetPoint"/>
                    </mxGeometry>
                </mxCell>
                <mxCell id="GrzHbech-eeEjeZB8RTP-13" value="" style="endArrow=none;html=1;rounded=0;exitX=0.195;exitY=-0.001;exitDx=0;exitDy=0;exitPerimeter=0;entryX=0.2;entryY=0.998;entryDx=0;entryDy=0;entryPerimeter=0;strokeWidth=0.3;" edge="1" parent="GrzHbech-eeEjeZB8RTP-8">
                    <mxGeometry width="50" height="50" relative="1" as="geometry">
                        <mxPoint x="39.99999999999996" as="sourcePoint"/>
                        <mxPoint x="41.2" y="239.75999999999988" as="targetPoint"/>
                    </mxGeometry>
                </mxCell>
                <mxCell id="GrzHbech-eeEjeZB8RTP-14" value="" style="endArrow=none;html=1;rounded=0;exitX=0.195;exitY=-0.001;exitDx=0;exitDy=0;exitPerimeter=0;entryX=0.332;entryY=0.996;entryDx=0;entryDy=0;entryPerimeter=0;strokeWidth=0.3;" edge="1" parent="GrzHbech-eeEjeZB8RTP-8" target="GrzHbech-eeEjeZB8RTP-3">
                    <mxGeometry width="50" height="50" relative="1" as="geometry">
                        <mxPoint x="80" y="1.4210854715202004e-14" as="sourcePoint"/>
                        <mxPoint x="81" y="200" as="targetPoint"/>
                    </mxGeometry>
                </mxCell>
                <mxCell id="GrzHbech-eeEjeZB8RTP-15" value="" style="endArrow=none;html=1;rounded=0;exitX=0.195;exitY=-0.001;exitDx=0;exitDy=0;exitPerimeter=0;entryX=0.667;entryY=0.998;entryDx=0;entryDy=0;entryPerimeter=0;strokeWidth=0.3;" edge="1" parent="GrzHbech-eeEjeZB8RTP-8" target="GrzHbech-eeEjeZB8RTP-3">
                    <mxGeometry width="50" height="50" relative="1" as="geometry">
                        <mxPoint x="160" y="1.4210854715202004e-14" as="sourcePoint"/>
                        <mxPoint x="161" y="200" as="targetPoint"/>
                    </mxGeometry>
                </mxCell>
                <mxCell id="GrzHbech-eeEjeZB8RTP-16" value="" style="endArrow=none;html=1;rounded=0;exitX=0.195;exitY=-0.001;exitDx=0;exitDy=0;exitPerimeter=0;entryX=0.833;entryY=1.001;entryDx=0;entryDy=0;entryPerimeter=0;strokeWidth=0.3;" edge="1" parent="GrzHbech-eeEjeZB8RTP-8" target="GrzHbech-eeEjeZB8RTP-3">
                    <mxGeometry width="50" height="50" relative="1" as="geometry">
                        <mxPoint x="200" y="1.4210854715202004e-14" as="sourcePoint"/>
                        <mxPoint x="201" y="200" as="targetPoint"/>
                    </mxGeometry>
                </mxCell>
                <mxCell id="GrzHbech-eeEjeZB8RTP-17" value="" style="endArrow=none;dashed=1;html=1;rounded=0;entryX=0.082;entryY=0;entryDx=0;entryDy=0;entryPerimeter=0;strokeWidth=0.3;" edge="1" parent="GrzHbech-eeEjeZB8RTP-8">
                    <mxGeometry width="50" height="50" relative="1" as="geometry">
                        <mxPoint x="179.63" y="240.00000000000003" as="sourcePoint"/>
                        <mxPoint x="179.63" y="1.4210854715202004e-14" as="targetPoint"/>
                    </mxGeometry>
                </mxCell>
                <mxCell id="GrzHbech-eeEjeZB8RTP-18" value="" style="endArrow=none;dashed=1;html=1;rounded=0;entryX=0.082;entryY=0;entryDx=0;entryDy=0;entryPerimeter=0;strokeWidth=0.3;" edge="1" parent="GrzHbech-eeEjeZB8RTP-8">
                    <mxGeometry width="50" height="50" relative="1" as="geometry">
                        <mxPoint x="219.63" y="240.24000000000004" as="sourcePoint"/>
                        <mxPoint x="219.63" y="0.2400000000000091" as="targetPoint"/>
                    </mxGeometry>
                </mxCell>
                <mxCell id="GrzHbech-eeEjeZB8RTP-19" value="" style="endArrow=none;dashed=1;html=1;rounded=0;entryX=0;entryY=0.084;entryDx=0;entryDy=0;entryPerimeter=0;strokeWidth=0.3;exitX=1.002;exitY=0.078;exitDx=0;exitDy=0;exitPerimeter=0;" edge="1" parent="GrzHbech-eeEjeZB8RTP-8">
                    <mxGeometry width="50" height="50" relative="1" as="geometry">
                        <mxPoint x="240" y="177.07000000000002" as="sourcePoint"/>
                        <mxPoint y="178.07000000000002" as="targetPoint"/>
                    </mxGeometry>
                </mxCell>
                <mxCell id="GrzHbech-eeEjeZB8RTP-20" value="" style="endArrow=none;dashed=1;html=1;rounded=0;entryX=1;entryY=0.25;entryDx=0;entryDy=0;strokeWidth=0.3;" edge="1" parent="GrzHbech-eeEjeZB8RTP-8">
                    <mxGeometry width="50" height="50" relative="1" as="geometry">
                        <mxPoint y="218.07000000000002" as="sourcePoint"/>
                        <mxPoint x="240" y="218.07000000000002" as="targetPoint"/>
                    </mxGeometry>
                </mxCell>
                <mxCell id="GrzHbech-eeEjeZB8RTP-21" value="" style="endArrow=none;dashed=1;html=1;rounded=0;entryX=0;entryY=0.084;entryDx=0;entryDy=0;entryPerimeter=0;strokeWidth=0.3;exitX=1.002;exitY=0.078;exitDx=0;exitDy=0;exitPerimeter=0;" edge="1" parent="GrzHbech-eeEjeZB8RTP-8">
                    <mxGeometry width="50" height="50" relative="1" as="geometry">
                        <mxPoint x="240" y="21.76000000000002" as="sourcePoint"/>
                        <mxPoint y="22.76000000000002" as="targetPoint"/>
                    </mxGeometry>
                </mxCell>
                <mxCell id="GrzHbech-eeEjeZB8RTP-22" value="" style="endArrow=none;dashed=1;html=1;rounded=0;entryX=1;entryY=0.25;entryDx=0;entryDy=0;strokeWidth=0.3;" edge="1" parent="GrzHbech-eeEjeZB8RTP-8">
                    <mxGeometry width="50" height="50" relative="1" as="geometry">
                        <mxPoint y="62.76000000000002" as="sourcePoint"/>
                        <mxPoint x="240" y="62.76000000000002" as="targetPoint"/>
                    </mxGeometry>
                </mxCell>
                <mxCell id="GrzHbech-eeEjeZB8RTP-23" value="" style="rounded=0;whiteSpace=wrap;html=1;strokeColor=none;rotation=-90;" vertex="1" parent="GrzHbech-eeEjeZB8RTP-8">
                    <mxGeometry x="15" y="99.75999999999999" width="210" height="40" as="geometry"/>
                </mxCell>
                <mxCell id="GrzHbech-eeEjeZB8RTP-24" value="" style="rounded=0;whiteSpace=wrap;html=1;strokeColor=none;" vertex="1" parent="GrzHbech-eeEjeZB8RTP-8">
                    <mxGeometry x="15" y="99.88" width="210" height="40" as="geometry"/>
                </mxCell>
                <mxCell id="GrzHbech-eeEjeZB8RTP-25" value="..." style="text;html=1;align=center;verticalAlign=middle;whiteSpace=wrap;rounded=0;rotation=90;" vertex="1" parent="GrzHbech-eeEjeZB8RTP-8">
                    <mxGeometry x="15" y="104.76000000000002" width="60" height="30" as="geometry"/>
                </mxCell>
                <mxCell id="GrzHbech-eeEjeZB8RTP-26" value="..." style="text;html=1;align=center;verticalAlign=middle;whiteSpace=wrap;rounded=0;rotation=90;" vertex="1" parent="GrzHbech-eeEjeZB8RTP-8">
                    <mxGeometry x="173" y="104.76000000000002" width="60" height="30" as="geometry"/>
                </mxCell>
                <mxCell id="GrzHbech-eeEjeZB8RTP-27" value="..." style="text;html=1;align=center;verticalAlign=middle;whiteSpace=wrap;rounded=0;" vertex="1" parent="GrzHbech-eeEjeZB8RTP-8">
                    <mxGeometry x="90" y="182.76000000000002" width="60" height="30" as="geometry"/>
                </mxCell>
                <mxCell id="GrzHbech-eeEjeZB8RTP-28" value="..." style="text;html=1;align=center;verticalAlign=middle;whiteSpace=wrap;rounded=0;" vertex="1" parent="GrzHbech-eeEjeZB8RTP-8">
                    <mxGeometry x="90" y="21.76000000000002" width="60" height="30" as="geometry"/>
                </mxCell>
                <mxCell id="GrzHbech-eeEjeZB8RTP-29" value="" style="endArrow=classic;html=1;rounded=0;strokeColor=#CC0000;" edge="1" parent="GrzHbech-eeEjeZB8RTP-8">
                    <mxGeometry width="50" height="50" relative="1" as="geometry">
                        <mxPoint x="30" y="22.76000000000002" as="sourcePoint"/>
                        <mxPoint x="50" y="22.76000000000002" as="targetPoint"/>
                    </mxGeometry>
                </mxCell>
                <mxCell id="GrzHbech-eeEjeZB8RTP-30" value="" style="endArrow=classic;html=1;rounded=0;strokeColor=#CC0000;" edge="1" parent="GrzHbech-eeEjeZB8RTP-8">
                    <mxGeometry width="50" height="50" relative="1" as="geometry">
                        <mxPoint x="30" y="62.76000000000002" as="sourcePoint"/>
                        <mxPoint x="50" y="62.76000000000002" as="targetPoint"/>
                    </mxGeometry>
                </mxCell>
                <mxCell id="GrzHbech-eeEjeZB8RTP-31" value="" style="endArrow=classic;html=1;rounded=0;strokeColor=#CC0000;" edge="1" parent="GrzHbech-eeEjeZB8RTP-8">
                    <mxGeometry width="50" height="50" relative="1" as="geometry">
                        <mxPoint x="31" y="177.39000000000001" as="sourcePoint"/>
                        <mxPoint x="51" y="177.39000000000001" as="targetPoint"/>
                    </mxGeometry>
                </mxCell>
                <mxCell id="GrzHbech-eeEjeZB8RTP-32" value="" style="endArrow=classic;html=1;rounded=0;strokeColor=#CC0000;" edge="1" parent="GrzHbech-eeEjeZB8RTP-8">
                    <mxGeometry width="50" height="50" relative="1" as="geometry">
                        <mxPoint x="31" y="218.39000000000001" as="sourcePoint"/>
                        <mxPoint x="51" y="218.39000000000001" as="targetPoint"/>
                    </mxGeometry>
                </mxCell>
                <mxCell id="GrzHbech-eeEjeZB8RTP-36" value="" style="ellipse;whiteSpace=wrap;html=1;aspect=fixed;fillColor=#00FF00;strokeColor=#00FF00;" vertex="1" parent="GrzHbech-eeEjeZB8RTP-8">
                    <mxGeometry x="58.88" y="20.76000000000002" width="3" height="3" as="geometry"/>
                </mxCell>
                <mxCell id="GrzHbech-eeEjeZB8RTP-37" value="" style="ellipse;whiteSpace=wrap;html=1;aspect=fixed;fillColor=#00FF00;strokeColor=#00FF00;" vertex="1" parent="GrzHbech-eeEjeZB8RTP-8">
                    <mxGeometry x="17.88" y="20.76000000000002" width="3" height="3" as="geometry"/>
                </mxCell>
                <mxCell id="GrzHbech-eeEjeZB8RTP-38" value="" style="ellipse;whiteSpace=wrap;html=1;aspect=fixed;fillColor=#00FF00;strokeColor=#00FF00;" vertex="1" parent="GrzHbech-eeEjeZB8RTP-8">
                    <mxGeometry x="17.88" y="60.76000000000002" width="3" height="3" as="geometry"/>
                </mxCell>
                <mxCell id="GrzHbech-eeEjeZB8RTP-39" value="" style="ellipse;whiteSpace=wrap;html=1;aspect=fixed;fillColor=#00FF00;strokeColor=#00FF00;" vertex="1" parent="GrzHbech-eeEjeZB8RTP-8">
                    <mxGeometry x="58.88" y="61.76000000000002" width="3" height="3" as="geometry"/>
                </mxCell>
                <mxCell id="GrzHbech-eeEjeZB8RTP-124" value="" style="endArrow=classic;html=1;rounded=0;strokeColor=#0000CC;fillColor=#f8cecc;" edge="1" parent="GrzHbech-eeEjeZB8RTP-8">
                    <mxGeometry width="50" height="50" relative="1" as="geometry">
                        <mxPoint x="10" y="79.75999999999999" as="sourcePoint"/>
                        <mxPoint x="30" y="79.75999999999999" as="targetPoint"/>
                    </mxGeometry>
                </mxCell>
                <mxCell id="GrzHbech-eeEjeZB8RTP-125" value="" style="endArrow=classic;html=1;rounded=0;strokeColor=#0000CC;fillColor=#f8cecc;" edge="1" parent="GrzHbech-eeEjeZB8RTP-8">
                    <mxGeometry width="50" height="50" relative="1" as="geometry">
                        <mxPoint x="49" y="79.75999999999999" as="sourcePoint"/>
                        <mxPoint x="69" y="79.75999999999999" as="targetPoint"/>
                    </mxGeometry>
                </mxCell>
                <mxCell id="GrzHbech-eeEjeZB8RTP-126" value="" style="endArrow=classic;html=1;rounded=0;strokeColor=#0000CC;fillColor=#f8cecc;" edge="1" parent="GrzHbech-eeEjeZB8RTP-8">
                    <mxGeometry width="50" height="50" relative="1" as="geometry">
                        <mxPoint x="171" y="79.75999999999999" as="sourcePoint"/>
                        <mxPoint x="191" y="79.75999999999999" as="targetPoint"/>
                    </mxGeometry>
                </mxCell>
                <mxCell id="GrzHbech-eeEjeZB8RTP-127" value="" style="endArrow=classic;html=1;rounded=0;strokeColor=#0000CC;fillColor=#f8cecc;" edge="1" parent="GrzHbech-eeEjeZB8RTP-8">
                    <mxGeometry width="50" height="50" relative="1" as="geometry">
                        <mxPoint x="210" y="79.75999999999999" as="sourcePoint"/>
                        <mxPoint x="230" y="79.75999999999999" as="targetPoint"/>
                    </mxGeometry>
                </mxCell>
                <mxCell id="GrzHbech-eeEjeZB8RTP-142" value="Interp" style="text;html=1;align=center;verticalAlign=middle;whiteSpace=wrap;rounded=0;fillColor=#FFFFFF;strokeColor=#b85450;fontFamily=Times New Roman;" vertex="1" parent="GrzHbech-eeEjeZB8RTP-8">
                    <mxGeometry x="61.88" y="148" width="41.12" height="19.76" as="geometry"/>
                </mxCell>
                <mxCell id="GrzHbech-eeEjeZB8RTP-143" value="" style="endArrow=none;dashed=1;html=1;strokeColor=#CC0000;" edge="1" parent="GrzHbech-eeEjeZB8RTP-8">
                    <mxGeometry width="50" height="50" relative="1" as="geometry">
                        <mxPoint x="40" y="219.76000000000002" as="sourcePoint"/>
                        <mxPoint x="80" y="179.76000000000002" as="targetPoint"/>
                    </mxGeometry>
                </mxCell>
                <mxCell id="GrzHbech-eeEjeZB8RTP-40" value="u index" style="text;html=1;align=center;verticalAlign=middle;whiteSpace=wrap;rounded=0;fontFamily=Times New Roman;fontColor=#CC0000;" vertex="1" parent="1">
                    <mxGeometry x="340" y="354" width="50" height="20" as="geometry"/>
                </mxCell>
                <mxCell id="GrzHbech-eeEjeZB8RTP-41" value="v index" style="text;html=1;align=center;verticalAlign=middle;whiteSpace=wrap;rounded=0;fontFamily=Times New Roman;fontColor=#0000FF;" vertex="1" parent="1">
                    <mxGeometry x="40" y="34" width="50" height="20" as="geometry"/>
                </mxCell>
                <mxCell id="GrzHbech-eeEjeZB8RTP-42" value="" style="endArrow=classic;html=1;rounded=0;strokeColor=#000000;" edge="1" parent="1">
                    <mxGeometry width="50" height="50" relative="1" as="geometry">
                        <mxPoint x="80" y="347" as="sourcePoint"/>
                        <mxPoint x="340" y="347" as="targetPoint"/>
                    </mxGeometry>
                </mxCell>
                <mxCell id="GrzHbech-eeEjeZB8RTP-43" value="scalar index" style="text;html=1;align=center;verticalAlign=middle;whiteSpace=wrap;rounded=0;fontFamily=Times New Roman;fontColor=#000000;" vertex="1" parent="1">
                    <mxGeometry x="340" y="337" width="70" height="20" as="geometry"/>
                </mxCell>
                <mxCell id="GrzHbech-eeEjeZB8RTP-44" value="" style="endArrow=classic;html=1;rounded=0;strokeColor=#000000;" edge="1" parent="1">
                    <mxGeometry width="50" height="50" relative="1" as="geometry">
                        <mxPoint x="67" y="320" as="sourcePoint"/>
                        <mxPoint x="67" y="60" as="targetPoint"/>
                    </mxGeometry>
                </mxCell>
                <mxCell id="GrzHbech-eeEjeZB8RTP-45" value="scalar index" style="text;html=1;align=center;verticalAlign=middle;whiteSpace=wrap;rounded=0;fontFamily=Times New Roman;fontColor=#000000;" vertex="1" parent="1">
                    <mxGeometry x="68" y="54" width="70" height="20" as="geometry"/>
                </mxCell>
                <mxCell id="GrzHbech-eeEjeZB8RTP-46" value="0" style="text;html=1;align=center;verticalAlign=middle;whiteSpace=wrap;rounded=0;fontFamily=Times New Roman;" vertex="1" parent="1">
                    <mxGeometry x="90" y="330" width="20" height="20" as="geometry"/>
                </mxCell>
                <mxCell id="GrzHbech-eeEjeZB8RTP-47" value="1" style="text;html=1;align=center;verticalAlign=middle;whiteSpace=wrap;rounded=0;fontFamily=Times New Roman;" vertex="1" parent="1">
                    <mxGeometry x="130" y="330" width="20" height="20" as="geometry"/>
                </mxCell>
                <mxCell id="GrzHbech-eeEjeZB8RTP-48" value="nx-1" style="text;html=1;align=center;verticalAlign=middle;whiteSpace=wrap;rounded=0;fontFamily=Times New Roman;" vertex="1" parent="1">
                    <mxGeometry x="284.5" y="330" width="30" height="20" as="geometry"/>
                </mxCell>
                <mxCell id="GrzHbech-eeEjeZB8RTP-49" value="nx-2" style="text;html=1;align=center;verticalAlign=middle;whiteSpace=wrap;rounded=0;fontFamily=Times New Roman;" vertex="1" parent="1">
                    <mxGeometry x="247" y="330" width="30" height="20" as="geometry"/>
                </mxCell>
                <mxCell id="GrzHbech-eeEjeZB8RTP-50" value="0" style="text;html=1;align=center;verticalAlign=middle;whiteSpace=wrap;rounded=0;fontFamily=Times New Roman;fontColor=#CC0000;" vertex="1" parent="1">
                    <mxGeometry x="70" y="348" width="20" height="20" as="geometry"/>
                </mxCell>
                <mxCell id="GrzHbech-eeEjeZB8RTP-51" value="1" style="text;html=1;align=center;verticalAlign=middle;whiteSpace=wrap;rounded=0;fontFamily=Times New Roman;fontColor=#CC0000;" vertex="1" parent="1">
                    <mxGeometry x="110" y="348" width="20" height="20" as="geometry"/>
                </mxCell>
                <mxCell id="GrzHbech-eeEjeZB8RTP-52" value="nx-1" style="text;html=1;align=center;verticalAlign=middle;whiteSpace=wrap;rounded=0;fontFamily=Times New Roman;fontColor=#CC0000;" vertex="1" parent="1">
                    <mxGeometry x="266" y="348" width="30" height="20" as="geometry"/>
                </mxCell>
                <mxCell id="GrzHbech-eeEjeZB8RTP-53" value="nx-2" style="text;html=1;align=center;verticalAlign=middle;whiteSpace=wrap;rounded=0;fontFamily=Times New Roman;fontColor=#CC0000;" vertex="1" parent="1">
                    <mxGeometry x="225" y="348" width="30" height="20" as="geometry"/>
                </mxCell>
                <mxCell id="GrzHbech-eeEjeZB8RTP-54" value="2" style="text;html=1;align=center;verticalAlign=middle;whiteSpace=wrap;rounded=0;fontFamily=Times New Roman;fontColor=#CC0000;" vertex="1" parent="1">
                    <mxGeometry x="150" y="348" width="20" height="20" as="geometry"/>
                </mxCell>
                <mxCell id="GrzHbech-eeEjeZB8RTP-55" value="nx" style="text;html=1;align=center;verticalAlign=middle;whiteSpace=wrap;rounded=0;fontFamily=Times New Roman;fontColor=#CC0000;" vertex="1" parent="1">
                    <mxGeometry x="303" y="348" width="30" height="20" as="geometry"/>
                </mxCell>
                <mxCell id="GrzHbech-eeEjeZB8RTP-56" value="0" style="text;html=1;align=center;verticalAlign=middle;whiteSpace=wrap;rounded=0;fontFamily=Times New Roman;" vertex="1" parent="1">
                    <mxGeometry x="48" y="290" width="20" height="20" as="geometry"/>
                </mxCell>
                <mxCell id="GrzHbech-eeEjeZB8RTP-57" value="1" style="text;html=1;align=center;verticalAlign=middle;whiteSpace=wrap;rounded=0;fontFamily=Times New Roman;" vertex="1" parent="1">
                    <mxGeometry x="48" y="250" width="20" height="20" as="geometry"/>
                </mxCell>
                <mxCell id="GrzHbech-eeEjeZB8RTP-58" value="ny-2" style="text;html=1;align=center;verticalAlign=middle;whiteSpace=wrap;rounded=0;fontFamily=Times New Roman;" vertex="1" parent="1">
                    <mxGeometry x="38" y="132" width="30" height="20" as="geometry"/>
                </mxCell>
                <mxCell id="GrzHbech-eeEjeZB8RTP-59" value="ny-1" style="text;html=1;align=center;verticalAlign=middle;whiteSpace=wrap;rounded=0;fontFamily=Times New Roman;" vertex="1" parent="1">
                    <mxGeometry x="40" y="94" width="28" height="20" as="geometry"/>
                </mxCell>
                <mxCell id="GrzHbech-eeEjeZB8RTP-60" value="0" style="text;html=1;align=center;verticalAlign=middle;whiteSpace=wrap;rounded=0;fontFamily=Times New Roman;fontColor=#0000FF;" vertex="1" parent="1">
                    <mxGeometry x="19" y="310" width="20" height="20" as="geometry"/>
                </mxCell>
                <mxCell id="GrzHbech-eeEjeZB8RTP-61" value="1" style="text;html=1;align=center;verticalAlign=middle;whiteSpace=wrap;rounded=0;fontFamily=Times New Roman;fontColor=#0000FF;" vertex="1" parent="1">
                    <mxGeometry x="19" y="270" width="20" height="20" as="geometry"/>
                </mxCell>
                <mxCell id="GrzHbech-eeEjeZB8RTP-62" value="2" style="text;html=1;align=center;verticalAlign=middle;whiteSpace=wrap;rounded=0;fontFamily=Times New Roman;fontColor=#0000FF;" vertex="1" parent="1">
                    <mxGeometry x="19" y="230" width="20" height="20" as="geometry"/>
                </mxCell>
                <mxCell id="GrzHbech-eeEjeZB8RTP-63" value="ny-2" style="text;html=1;align=center;verticalAlign=middle;whiteSpace=wrap;rounded=0;fontFamily=Times New Roman;fontColor=#0000FF;" vertex="1" parent="1">
                    <mxGeometry x="9" y="150" width="30" height="20" as="geometry"/>
                </mxCell>
                <mxCell id="GrzHbech-eeEjeZB8RTP-64" value="ny-1" style="text;html=1;align=center;verticalAlign=middle;whiteSpace=wrap;rounded=0;fontFamily=Times New Roman;fontColor=#0000FF;" vertex="1" parent="1">
                    <mxGeometry x="10" y="114" width="29" height="20" as="geometry"/>
                </mxCell>
                <mxCell id="GrzHbech-eeEjeZB8RTP-65" value="ny" style="text;html=1;align=center;verticalAlign=middle;whiteSpace=wrap;rounded=0;fontFamily=Times New Roman;fontColor=#0000FF;" vertex="1" parent="1">
                    <mxGeometry x="9" y="74" width="30" height="20" as="geometry"/>
                </mxCell>
                <mxCell id="GrzHbech-eeEjeZB8RTP-66" value="" style="endArrow=classic;html=1;rounded=0;strokeColor=#CC0000;" edge="1" parent="1">
                    <mxGeometry width="50" height="50" relative="1" as="geometry">
                        <mxPoint x="151" y="103" as="sourcePoint"/>
                        <mxPoint x="171" y="103" as="targetPoint"/>
                    </mxGeometry>
                </mxCell>
                <mxCell id="GrzHbech-eeEjeZB8RTP-67" value="" style="endArrow=classic;html=1;rounded=0;strokeColor=#CC0000;" edge="1" parent="1">
                    <mxGeometry width="50" height="50" relative="1" as="geometry">
                        <mxPoint x="151" y="143" as="sourcePoint"/>
                        <mxPoint x="171" y="143" as="targetPoint"/>
                    </mxGeometry>
                </mxCell>
                <mxCell id="GrzHbech-eeEjeZB8RTP-68" value="" style="endArrow=classic;html=1;rounded=0;strokeColor=#CC0000;" edge="1" parent="1">
                    <mxGeometry width="50" height="50" relative="1" as="geometry">
                        <mxPoint x="152" y="257.63" as="sourcePoint"/>
                        <mxPoint x="172" y="257.63" as="targetPoint"/>
                    </mxGeometry>
                </mxCell>
                <mxCell id="GrzHbech-eeEjeZB8RTP-69" value="" style="endArrow=classic;html=1;rounded=0;strokeColor=#CC0000;" edge="1" parent="1">
                    <mxGeometry width="50" height="50" relative="1" as="geometry">
                        <mxPoint x="152" y="298.63" as="sourcePoint"/>
                        <mxPoint x="172" y="298.63" as="targetPoint"/>
                    </mxGeometry>
                </mxCell>
                <mxCell id="GrzHbech-eeEjeZB8RTP-70" value="" style="endArrow=classic;html=1;rounded=0;strokeColor=#CC0000;" edge="1" parent="1">
                    <mxGeometry width="50" height="50" relative="1" as="geometry">
                        <mxPoint x="74" y="103" as="sourcePoint"/>
                        <mxPoint x="94" y="103" as="targetPoint"/>
                    </mxGeometry>
                </mxCell>
                <mxCell id="GrzHbech-eeEjeZB8RTP-71" value="" style="endArrow=classic;html=1;rounded=0;strokeColor=#CC0000;" edge="1" parent="1">
                    <mxGeometry width="50" height="50" relative="1" as="geometry">
                        <mxPoint x="74" y="143" as="sourcePoint"/>
                        <mxPoint x="94" y="143" as="targetPoint"/>
                    </mxGeometry>
                </mxCell>
                <mxCell id="GrzHbech-eeEjeZB8RTP-72" value="" style="endArrow=classic;html=1;rounded=0;strokeColor=#CC0000;" edge="1" parent="1">
                    <mxGeometry width="50" height="50" relative="1" as="geometry">
                        <mxPoint x="75" y="258.63" as="sourcePoint"/>
                        <mxPoint x="95" y="258.63" as="targetPoint"/>
                    </mxGeometry>
                </mxCell>
                <mxCell id="GrzHbech-eeEjeZB8RTP-73" value="" style="endArrow=classic;html=1;rounded=0;strokeColor=#CC0000;" edge="1" parent="1">
                    <mxGeometry width="50" height="50" relative="1" as="geometry">
                        <mxPoint x="75" y="298.63" as="sourcePoint"/>
                        <mxPoint x="95" y="298.63" as="targetPoint"/>
                    </mxGeometry>
                </mxCell>
                <mxCell id="GrzHbech-eeEjeZB8RTP-74" value="" style="endArrow=classic;html=1;rounded=0;strokeColor=#CC0000;" edge="1" parent="1">
                    <mxGeometry width="50" height="50" relative="1" as="geometry">
                        <mxPoint x="230" y="102" as="sourcePoint"/>
                        <mxPoint x="250" y="102" as="targetPoint"/>
                    </mxGeometry>
                </mxCell>
                <mxCell id="GrzHbech-eeEjeZB8RTP-75" value="" style="endArrow=classic;html=1;rounded=0;strokeColor=#CC0000;" edge="1" parent="1">
                    <mxGeometry width="50" height="50" relative="1" as="geometry">
                        <mxPoint x="230" y="143" as="sourcePoint"/>
                        <mxPoint x="250" y="143" as="targetPoint"/>
                    </mxGeometry>
                </mxCell>
                <mxCell id="GrzHbech-eeEjeZB8RTP-76" value="" style="endArrow=classic;html=1;rounded=0;strokeColor=#CC0000;" edge="1" parent="1">
                    <mxGeometry width="50" height="50" relative="1" as="geometry">
                        <mxPoint x="231" y="257.63" as="sourcePoint"/>
                        <mxPoint x="251" y="257.63" as="targetPoint"/>
                    </mxGeometry>
                </mxCell>
                <mxCell id="GrzHbech-eeEjeZB8RTP-77" value="" style="endArrow=classic;html=1;rounded=0;strokeColor=#CC0000;" edge="1" parent="1">
                    <mxGeometry width="50" height="50" relative="1" as="geometry">
                        <mxPoint x="231" y="298.63" as="sourcePoint"/>
                        <mxPoint x="251" y="298.63" as="targetPoint"/>
                    </mxGeometry>
                </mxCell>
                <mxCell id="GrzHbech-eeEjeZB8RTP-78" value="" style="endArrow=classic;html=1;rounded=0;strokeColor=#CC0000;" edge="1" parent="1">
                    <mxGeometry width="50" height="50" relative="1" as="geometry">
                        <mxPoint x="271" y="102" as="sourcePoint"/>
                        <mxPoint x="291" y="102" as="targetPoint"/>
                    </mxGeometry>
                </mxCell>
                <mxCell id="GrzHbech-eeEjeZB8RTP-79" value="" style="endArrow=classic;html=1;rounded=0;strokeColor=#CC0000;" edge="1" parent="1">
                    <mxGeometry width="50" height="50" relative="1" as="geometry">
                        <mxPoint x="271" y="143" as="sourcePoint"/>
                        <mxPoint x="291" y="143" as="targetPoint"/>
                    </mxGeometry>
                </mxCell>
                <mxCell id="GrzHbech-eeEjeZB8RTP-80" value="" style="endArrow=classic;html=1;rounded=0;strokeColor=#CC0000;" edge="1" parent="1">
                    <mxGeometry width="50" height="50" relative="1" as="geometry">
                        <mxPoint x="272" y="257.63" as="sourcePoint"/>
                        <mxPoint x="292" y="257.63" as="targetPoint"/>
                    </mxGeometry>
                </mxCell>
                <mxCell id="GrzHbech-eeEjeZB8RTP-81" value="" style="endArrow=classic;html=1;rounded=0;strokeColor=#CC0000;" edge="1" parent="1">
                    <mxGeometry width="50" height="50" relative="1" as="geometry">
                        <mxPoint x="272" y="298.63" as="sourcePoint"/>
                        <mxPoint x="292" y="298.63" as="targetPoint"/>
                    </mxGeometry>
                </mxCell>
                <mxCell id="GrzHbech-eeEjeZB8RTP-82" value="" style="endArrow=classic;html=1;rounded=0;strokeColor=#CC0000;" edge="1" parent="1">
                    <mxGeometry width="50" height="50" relative="1" as="geometry">
                        <mxPoint x="310" y="102" as="sourcePoint"/>
                        <mxPoint x="330" y="102" as="targetPoint"/>
                    </mxGeometry>
                </mxCell>
                <mxCell id="GrzHbech-eeEjeZB8RTP-83" value="" style="endArrow=classic;html=1;rounded=0;strokeColor=#CC0000;" edge="1" parent="1">
                    <mxGeometry width="50" height="50" relative="1" as="geometry">
                        <mxPoint x="310" y="143" as="sourcePoint"/>
                        <mxPoint x="330" y="143" as="targetPoint"/>
                    </mxGeometry>
                </mxCell>
                <mxCell id="GrzHbech-eeEjeZB8RTP-84" value="" style="endArrow=classic;html=1;rounded=0;strokeColor=#CC0000;" edge="1" parent="1">
                    <mxGeometry width="50" height="50" relative="1" as="geometry">
                        <mxPoint x="311" y="257.63" as="sourcePoint"/>
                        <mxPoint x="331" y="257.63" as="targetPoint"/>
                    </mxGeometry>
                </mxCell>
                <mxCell id="GrzHbech-eeEjeZB8RTP-85" value="" style="endArrow=classic;html=1;rounded=0;strokeColor=#CC0000;" edge="1" parent="1">
                    <mxGeometry width="50" height="50" relative="1" as="geometry">
                        <mxPoint x="311" y="298.63" as="sourcePoint"/>
                        <mxPoint x="331" y="298.63" as="targetPoint"/>
                    </mxGeometry>
                </mxCell>
                <mxCell id="GrzHbech-eeEjeZB8RTP-107" value="" style="ellipse;whiteSpace=wrap;html=1;aspect=fixed;fillColor=#00FF00;strokeColor=#00FF00;" vertex="1" parent="1">
                    <mxGeometry x="298" y="100" width="3" height="3" as="geometry"/>
                </mxCell>
                <mxCell id="GrzHbech-eeEjeZB8RTP-108" value="" style="ellipse;whiteSpace=wrap;html=1;aspect=fixed;fillColor=#00FF00;strokeColor=#00FF00;" vertex="1" parent="1">
                    <mxGeometry x="298" y="142" width="3" height="3" as="geometry"/>
                </mxCell>
                <mxCell id="GrzHbech-eeEjeZB8RTP-109" value="" style="ellipse;whiteSpace=wrap;html=1;aspect=fixed;fillColor=#00FF00;strokeColor=#00FF00;" vertex="1" parent="1">
                    <mxGeometry x="258" y="100" width="3" height="3" as="geometry"/>
                </mxCell>
                <mxCell id="GrzHbech-eeEjeZB8RTP-110" value="" style="ellipse;whiteSpace=wrap;html=1;aspect=fixed;fillColor=#00FF00;strokeColor=#00FF00;" vertex="1" parent="1">
                    <mxGeometry x="258" y="142" width="3" height="3" as="geometry"/>
                </mxCell>
                <mxCell id="GrzHbech-eeEjeZB8RTP-111" value="" style="ellipse;whiteSpace=wrap;html=1;aspect=fixed;fillColor=#00FF00;strokeColor=#00FF00;" vertex="1" parent="1">
                    <mxGeometry x="298" y="256" width="3" height="3" as="geometry"/>
                </mxCell>
                <mxCell id="GrzHbech-eeEjeZB8RTP-112" value="" style="ellipse;whiteSpace=wrap;html=1;aspect=fixed;fillColor=#00FF00;strokeColor=#00FF00;" vertex="1" parent="1">
                    <mxGeometry x="298" y="297" width="3" height="3" as="geometry"/>
                </mxCell>
                <mxCell id="GrzHbech-eeEjeZB8RTP-113" value="" style="ellipse;whiteSpace=wrap;html=1;aspect=fixed;fillColor=#00FF00;strokeColor=#00FF00;" vertex="1" parent="1">
                    <mxGeometry x="258" y="256" width="3" height="3" as="geometry"/>
                </mxCell>
                <mxCell id="GrzHbech-eeEjeZB8RTP-114" value="" style="ellipse;whiteSpace=wrap;html=1;aspect=fixed;fillColor=#00FF00;strokeColor=#00FF00;" vertex="1" parent="1">
                    <mxGeometry x="258" y="297" width="3" height="3" as="geometry"/>
                </mxCell>
                <mxCell id="GrzHbech-eeEjeZB8RTP-115" value="" style="ellipse;whiteSpace=wrap;html=1;aspect=fixed;fillColor=#00FF00;strokeColor=#00FF00;" vertex="1" parent="1">
                    <mxGeometry x="139" y="257" width="3" height="3" as="geometry"/>
                </mxCell>
                <mxCell id="GrzHbech-eeEjeZB8RTP-116" value="" style="ellipse;whiteSpace=wrap;html=1;aspect=fixed;fillColor=#00FF00;strokeColor=#00FF00;" vertex="1" parent="1">
                    <mxGeometry x="99" y="257" width="3" height="3" as="geometry"/>
                </mxCell>
                <mxCell id="GrzHbech-eeEjeZB8RTP-117" value="" style="ellipse;whiteSpace=wrap;html=1;aspect=fixed;fillColor=#00FF00;strokeColor=#00FF00;" vertex="1" parent="1">
                    <mxGeometry x="99" y="298" width="3" height="3" as="geometry"/>
                </mxCell>
                <mxCell id="GrzHbech-eeEjeZB8RTP-118" value="" style="ellipse;whiteSpace=wrap;html=1;aspect=fixed;fillColor=#00FF00;strokeColor=#00FF00;" vertex="1" parent="1">
                    <mxGeometry x="138" y="297" width="3" height="3" as="geometry"/>
                </mxCell>
                <mxCell id="GrzHbech-eeEjeZB8RTP-120" value="" style="endArrow=classic;html=1;rounded=0;strokeColor=#0000CC;fillColor=#f8cecc;" edge="1" parent="1">
                    <mxGeometry width="50" height="50" relative="1" as="geometry">
                        <mxPoint x="90.5" y="279.83" as="sourcePoint"/>
                        <mxPoint x="110.5" y="279.83" as="targetPoint"/>
                    </mxGeometry>
                </mxCell>
                <mxCell id="GrzHbech-eeEjeZB8RTP-121" value="" style="endArrow=classic;html=1;rounded=0;strokeColor=#0000CC;fillColor=#f8cecc;" edge="1" parent="1">
                    <mxGeometry width="50" height="50" relative="1" as="geometry">
                        <mxPoint x="129.5" y="279.83" as="sourcePoint"/>
                        <mxPoint x="149.5" y="279.83" as="targetPoint"/>
                    </mxGeometry>
                </mxCell>
                <mxCell id="GrzHbech-eeEjeZB8RTP-122" value="" style="endArrow=classic;html=1;rounded=0;strokeColor=#0000CC;fillColor=#f8cecc;" edge="1" parent="1">
                    <mxGeometry width="50" height="50" relative="1" as="geometry">
                        <mxPoint x="251.5" y="279.83" as="sourcePoint"/>
                        <mxPoint x="271.5" y="279.83" as="targetPoint"/>
                    </mxGeometry>
                </mxCell>
                <mxCell id="GrzHbech-eeEjeZB8RTP-123" value="" style="endArrow=classic;html=1;rounded=0;strokeColor=#0000CC;fillColor=#f8cecc;" edge="1" parent="1">
                    <mxGeometry width="50" height="50" relative="1" as="geometry">
                        <mxPoint x="290.5" y="279.83" as="sourcePoint"/>
                        <mxPoint x="310.5" y="279.83" as="targetPoint"/>
                    </mxGeometry>
                </mxCell>
                <mxCell id="GrzHbech-eeEjeZB8RTP-128" value="" style="endArrow=classic;html=1;rounded=0;strokeColor=#0000CC;fillColor=#f8cecc;" edge="1" parent="1">
                    <mxGeometry width="50" height="50" relative="1" as="geometry">
                        <mxPoint x="91" y="120.82999999999997" as="sourcePoint"/>
                        <mxPoint x="111" y="120.82999999999997" as="targetPoint"/>
                    </mxGeometry>
                </mxCell>
                <mxCell id="GrzHbech-eeEjeZB8RTP-129" value="" style="endArrow=classic;html=1;rounded=0;strokeColor=#0000CC;fillColor=#f8cecc;" edge="1" parent="1">
                    <mxGeometry width="50" height="50" relative="1" as="geometry">
                        <mxPoint x="130" y="120.82999999999997" as="sourcePoint"/>
                        <mxPoint x="150" y="120.82999999999997" as="targetPoint"/>
                    </mxGeometry>
                </mxCell>
                <mxCell id="GrzHbech-eeEjeZB8RTP-130" value="" style="endArrow=classic;html=1;rounded=0;strokeColor=#0000CC;fillColor=#f8cecc;" edge="1" parent="1">
                    <mxGeometry width="50" height="50" relative="1" as="geometry">
                        <mxPoint x="252" y="120.82999999999997" as="sourcePoint"/>
                        <mxPoint x="272" y="120.82999999999997" as="targetPoint"/>
                    </mxGeometry>
                </mxCell>
                <mxCell id="GrzHbech-eeEjeZB8RTP-131" value="" style="endArrow=classic;html=1;rounded=0;strokeColor=#0000CC;fillColor=#f8cecc;" edge="1" parent="1">
                    <mxGeometry width="50" height="50" relative="1" as="geometry">
                        <mxPoint x="291" y="120.82999999999997" as="sourcePoint"/>
                        <mxPoint x="311" y="120.82999999999997" as="targetPoint"/>
                    </mxGeometry>
                </mxCell>
                <mxCell id="GrzHbech-eeEjeZB8RTP-132" value="" style="endArrow=classic;html=1;rounded=0;strokeColor=#0000CC;fillColor=#f8cecc;" edge="1" parent="1">
                    <mxGeometry width="50" height="50" relative="1" as="geometry">
                        <mxPoint x="93" y="79.82999999999998" as="sourcePoint"/>
                        <mxPoint x="113" y="79.82999999999998" as="targetPoint"/>
                    </mxGeometry>
                </mxCell>
                <mxCell id="GrzHbech-eeEjeZB8RTP-133" value="" style="endArrow=classic;html=1;rounded=0;strokeColor=#0000CC;fillColor=#f8cecc;" edge="1" parent="1">
                    <mxGeometry width="50" height="50" relative="1" as="geometry">
                        <mxPoint x="132" y="79.82999999999998" as="sourcePoint"/>
                        <mxPoint x="152" y="79.82999999999998" as="targetPoint"/>
                    </mxGeometry>
                </mxCell>
                <mxCell id="GrzHbech-eeEjeZB8RTP-134" value="" style="endArrow=classic;html=1;rounded=0;strokeColor=#0000CC;fillColor=#f8cecc;" edge="1" parent="1">
                    <mxGeometry width="50" height="50" relative="1" as="geometry">
                        <mxPoint x="254" y="79.82999999999998" as="sourcePoint"/>
                        <mxPoint x="274" y="79.82999999999998" as="targetPoint"/>
                    </mxGeometry>
                </mxCell>
                <mxCell id="GrzHbech-eeEjeZB8RTP-135" value="" style="endArrow=classic;html=1;rounded=0;strokeColor=#0000CC;fillColor=#f8cecc;" edge="1" parent="1">
                    <mxGeometry width="50" height="50" relative="1" as="geometry">
                        <mxPoint x="293" y="79.82999999999998" as="sourcePoint"/>
                        <mxPoint x="313" y="79.82999999999998" as="targetPoint"/>
                    </mxGeometry>
                </mxCell>
                <mxCell id="GrzHbech-eeEjeZB8RTP-136" value="" style="endArrow=classic;html=1;rounded=0;strokeColor=#0000CC;fillColor=#f8cecc;" edge="1" parent="1">
                    <mxGeometry width="50" height="50" relative="1" as="geometry">
                        <mxPoint x="90.5" y="319.83" as="sourcePoint"/>
                        <mxPoint x="110.5" y="319.83" as="targetPoint"/>
                    </mxGeometry>
                </mxCell>
                <mxCell id="GrzHbech-eeEjeZB8RTP-137" value="" style="endArrow=classic;html=1;rounded=0;strokeColor=#0000CC;fillColor=#f8cecc;" edge="1" parent="1">
                    <mxGeometry width="50" height="50" relative="1" as="geometry">
                        <mxPoint x="129.5" y="319.83" as="sourcePoint"/>
                        <mxPoint x="149.5" y="319.83" as="targetPoint"/>
                    </mxGeometry>
                </mxCell>
                <mxCell id="GrzHbech-eeEjeZB8RTP-138" value="" style="endArrow=classic;html=1;rounded=0;strokeColor=#0000CC;fillColor=#f8cecc;" edge="1" parent="1">
                    <mxGeometry width="50" height="50" relative="1" as="geometry">
                        <mxPoint x="251.5" y="319.83" as="sourcePoint"/>
                        <mxPoint x="271.5" y="319.83" as="targetPoint"/>
                    </mxGeometry>
                </mxCell>
                <mxCell id="GrzHbech-eeEjeZB8RTP-139" value="" style="endArrow=classic;html=1;rounded=0;strokeColor=#0000CC;fillColor=#f8cecc;" edge="1" parent="1">
                    <mxGeometry width="50" height="50" relative="1" as="geometry">
                        <mxPoint x="290.5" y="319.83" as="sourcePoint"/>
                        <mxPoint x="310.5" y="319.83" as="targetPoint"/>
                    </mxGeometry>
                </mxCell>
                <mxCell id="GrzHbech-eeEjeZB8RTP-144" value="" style="endArrow=none;dashed=1;html=1;fontColor=#CC0000;strokeColor=#CC0000;" edge="1" parent="1">
                    <mxGeometry width="50" height="50" relative="1" as="geometry">
                        <mxPoint x="120" y="260" as="sourcePoint"/>
                        <mxPoint x="160" y="300" as="targetPoint"/>
                    </mxGeometry>
                </mxCell>
            </root>
        </mxGraphModel>
    </diagram>
    <diagram name="全体図" id="Ayow5-VMEha0wBVnLcW4">
        <mxGraphModel dx="970" dy="634" grid="1" gridSize="10" guides="1" tooltips="1" connect="1" arrows="1" fold="1" page="1" pageScale="1" pageWidth="1390" pageHeight="360" math="0" shadow="0">
            <root>
                <mxCell id="0"/>
                <mxCell id="1" parent="0"/>
                <mxCell id="hNbSL6XgEmBNJISSKw9M-51" value="" style="endArrow=none;dashed=1;html=1;rounded=0;entryX=1;entryY=0.25;entryDx=0;entryDy=0;strokeWidth=0.3;" parent="1" target="hNbSL6XgEmBNJISSKw9M-1" edge="1">
                    <mxGeometry width="50" height="50" relative="1" as="geometry">
                        <mxPoint x="80" y="140" as="sourcePoint"/>
                        <mxPoint x="150" y="90.24" as="targetPoint"/>
                    </mxGeometry>
                </mxCell>
                <mxCell id="hNbSL6XgEmBNJISSKw9M-50" value="" style="endArrow=none;dashed=1;html=1;rounded=0;entryX=0;entryY=0.084;entryDx=0;entryDy=0;entryPerimeter=0;strokeWidth=0.3;exitX=1.002;exitY=0.078;exitDx=0;exitDy=0;exitPerimeter=0;" parent="1" source="hNbSL6XgEmBNJISSKw9M-1" target="hNbSL6XgEmBNJISSKw9M-1" edge="1">
                    <mxGeometry width="50" height="50" relative="1" as="geometry">
                        <mxPoint x="110" y="90" as="sourcePoint"/>
                        <mxPoint x="110" y="330" as="targetPoint"/>
                    </mxGeometry>
                </mxCell>
                <mxCell id="hNbSL6XgEmBNJISSKw9M-1" value="" style="rounded=0;whiteSpace=wrap;html=1;" parent="1" vertex="1">
                    <mxGeometry x="80" y="80" width="240" height="240" as="geometry"/>
                </mxCell>
                <mxCell id="hNbSL6XgEmBNJISSKw9M-2" value="" style="endArrow=classic;html=1;rounded=0;strokeColor=#CC0000;" parent="1" edge="1">
                    <mxGeometry width="50" height="50" relative="1" as="geometry">
                        <mxPoint x="60" y="365" as="sourcePoint"/>
                        <mxPoint x="340" y="365" as="targetPoint"/>
                    </mxGeometry>
                </mxCell>
                <mxCell id="hNbSL6XgEmBNJISSKw9M-11" value="" style="endArrow=classic;html=1;rounded=0;strokeColor=#0000FF;" parent="1" edge="1">
                    <mxGeometry width="50" height="50" relative="1" as="geometry">
                        <mxPoint x="39" y="340" as="sourcePoint"/>
                        <mxPoint x="39" y="40" as="targetPoint"/>
                    </mxGeometry>
                </mxCell>
                <mxCell id="hNbSL6XgEmBNJISSKw9M-46" value="" style="endArrow=none;dashed=1;html=1;rounded=0;entryX=0.082;entryY=0;entryDx=0;entryDy=0;entryPerimeter=0;strokeWidth=0.3;exitX=0.082;exitY=0;exitDx=0;exitDy=0;exitPerimeter=0;" parent="1" source="hNbSL6XgEmBNJISSKw9M-1" edge="1">
                    <mxGeometry width="50" height="50" relative="1" as="geometry">
                        <mxPoint x="150" y="253" as="sourcePoint"/>
                        <mxPoint x="100" y="320" as="targetPoint"/>
                    </mxGeometry>
                </mxCell>
                <mxCell id="hNbSL6XgEmBNJISSKw9M-47" value="" style="endArrow=none;dashed=1;html=1;rounded=0;entryX=0.082;entryY=0;entryDx=0;entryDy=0;entryPerimeter=0;strokeWidth=0.3;" parent="1" edge="1">
                    <mxGeometry width="50" height="50" relative="1" as="geometry">
                        <mxPoint x="140" y="320.24" as="sourcePoint"/>
                        <mxPoint x="140" y="80.24" as="targetPoint"/>
                    </mxGeometry>
                </mxCell>
                <mxCell id="hNbSL6XgEmBNJISSKw9M-12" value="" style="group;strokeColor=none;strokeWidth=0.3;" parent="1" vertex="1" connectable="0">
                    <mxGeometry x="80" y="80.23999999999998" width="240" height="239.75999999999988" as="geometry"/>
                </mxCell>
                <mxCell id="hNbSL6XgEmBNJISSKw9M-3" value="" style="endArrow=none;html=1;rounded=0;strokeWidth=0.3;" parent="hNbSL6XgEmBNJISSKw9M-12" edge="1">
                    <mxGeometry width="50" height="50" relative="1" as="geometry">
                        <mxPoint y="40.000000000000014" as="sourcePoint"/>
                        <mxPoint x="240" y="40.000000000000014" as="targetPoint"/>
                    </mxGeometry>
                </mxCell>
                <mxCell id="hNbSL6XgEmBNJISSKw9M-4" value="" style="endArrow=none;html=1;rounded=0;entryX=1.002;entryY=0.333;entryDx=0;entryDy=0;entryPerimeter=0;strokeWidth=0.3;" parent="hNbSL6XgEmBNJISSKw9M-12" target="hNbSL6XgEmBNJISSKw9M-1" edge="1">
                    <mxGeometry width="50" height="50" relative="1" as="geometry">
                        <mxPoint y="80.00000000000001" as="sourcePoint"/>
                        <mxPoint x="200" y="80.00000000000001" as="targetPoint"/>
                    </mxGeometry>
                </mxCell>
                <mxCell id="hNbSL6XgEmBNJISSKw9M-5" value="" style="endArrow=none;html=1;rounded=0;entryX=1;entryY=0.665;entryDx=0;entryDy=0;entryPerimeter=0;strokeWidth=0.3;" parent="hNbSL6XgEmBNJISSKw9M-12" target="hNbSL6XgEmBNJISSKw9M-1" edge="1">
                    <mxGeometry width="50" height="50" relative="1" as="geometry">
                        <mxPoint y="160" as="sourcePoint"/>
                        <mxPoint x="200" y="160" as="targetPoint"/>
                    </mxGeometry>
                </mxCell>
                <mxCell id="hNbSL6XgEmBNJISSKw9M-6" value="" style="endArrow=none;html=1;rounded=0;entryX=1.002;entryY=0.834;entryDx=0;entryDy=0;entryPerimeter=0;strokeWidth=0.3;" parent="hNbSL6XgEmBNJISSKw9M-12" target="hNbSL6XgEmBNJISSKw9M-1" edge="1">
                    <mxGeometry width="50" height="50" relative="1" as="geometry">
                        <mxPoint y="200" as="sourcePoint"/>
                        <mxPoint x="200" y="200" as="targetPoint"/>
                    </mxGeometry>
                </mxCell>
                <mxCell id="hNbSL6XgEmBNJISSKw9M-7" value="" style="endArrow=none;html=1;rounded=0;exitX=0.195;exitY=-0.001;exitDx=0;exitDy=0;exitPerimeter=0;entryX=0.2;entryY=0.998;entryDx=0;entryDy=0;entryPerimeter=0;strokeWidth=0.3;" parent="hNbSL6XgEmBNJISSKw9M-12" edge="1">
                    <mxGeometry width="50" height="50" relative="1" as="geometry">
                        <mxPoint x="39.99999999999996" as="sourcePoint"/>
                        <mxPoint x="41.2" y="239.75999999999988" as="targetPoint"/>
                    </mxGeometry>
                </mxCell>
                <mxCell id="hNbSL6XgEmBNJISSKw9M-8" value="" style="endArrow=none;html=1;rounded=0;exitX=0.195;exitY=-0.001;exitDx=0;exitDy=0;exitPerimeter=0;entryX=0.332;entryY=0.996;entryDx=0;entryDy=0;entryPerimeter=0;strokeWidth=0.3;" parent="hNbSL6XgEmBNJISSKw9M-12" target="hNbSL6XgEmBNJISSKw9M-1" edge="1">
                    <mxGeometry width="50" height="50" relative="1" as="geometry">
                        <mxPoint x="80" y="1.4210854715202004e-14" as="sourcePoint"/>
                        <mxPoint x="81" y="200" as="targetPoint"/>
                    </mxGeometry>
                </mxCell>
                <mxCell id="hNbSL6XgEmBNJISSKw9M-9" value="" style="endArrow=none;html=1;rounded=0;exitX=0.195;exitY=-0.001;exitDx=0;exitDy=0;exitPerimeter=0;entryX=0.667;entryY=0.998;entryDx=0;entryDy=0;entryPerimeter=0;strokeWidth=0.3;" parent="hNbSL6XgEmBNJISSKw9M-12" target="hNbSL6XgEmBNJISSKw9M-1" edge="1">
                    <mxGeometry width="50" height="50" relative="1" as="geometry">
                        <mxPoint x="160" y="1.4210854715202004e-14" as="sourcePoint"/>
                        <mxPoint x="161" y="200" as="targetPoint"/>
                    </mxGeometry>
                </mxCell>
                <mxCell id="hNbSL6XgEmBNJISSKw9M-10" value="" style="endArrow=none;html=1;rounded=0;exitX=0.195;exitY=-0.001;exitDx=0;exitDy=0;exitPerimeter=0;entryX=0.833;entryY=1.001;entryDx=0;entryDy=0;entryPerimeter=0;strokeWidth=0.3;" parent="hNbSL6XgEmBNJISSKw9M-12" target="hNbSL6XgEmBNJISSKw9M-1" edge="1">
                    <mxGeometry width="50" height="50" relative="1" as="geometry">
                        <mxPoint x="200" y="1.4210854715202004e-14" as="sourcePoint"/>
                        <mxPoint x="201" y="200" as="targetPoint"/>
                    </mxGeometry>
                </mxCell>
                <mxCell id="hNbSL6XgEmBNJISSKw9M-48" value="" style="endArrow=none;dashed=1;html=1;rounded=0;entryX=0.082;entryY=0;entryDx=0;entryDy=0;entryPerimeter=0;strokeWidth=0.3;" parent="hNbSL6XgEmBNJISSKw9M-12" edge="1">
                    <mxGeometry width="50" height="50" relative="1" as="geometry">
                        <mxPoint x="179.63" y="240.00000000000003" as="sourcePoint"/>
                        <mxPoint x="179.63" y="1.4210854715202004e-14" as="targetPoint"/>
                    </mxGeometry>
                </mxCell>
                <mxCell id="hNbSL6XgEmBNJISSKw9M-49" value="" style="endArrow=none;dashed=1;html=1;rounded=0;entryX=0.082;entryY=0;entryDx=0;entryDy=0;entryPerimeter=0;strokeWidth=0.3;" parent="hNbSL6XgEmBNJISSKw9M-12" edge="1">
                    <mxGeometry width="50" height="50" relative="1" as="geometry">
                        <mxPoint x="219.63" y="240.24000000000004" as="sourcePoint"/>
                        <mxPoint x="219.63" y="0.2400000000000091" as="targetPoint"/>
                    </mxGeometry>
                </mxCell>
                <mxCell id="hNbSL6XgEmBNJISSKw9M-52" value="" style="endArrow=none;dashed=1;html=1;rounded=0;entryX=0;entryY=0.084;entryDx=0;entryDy=0;entryPerimeter=0;strokeWidth=0.3;exitX=1.002;exitY=0.078;exitDx=0;exitDy=0;exitPerimeter=0;" parent="hNbSL6XgEmBNJISSKw9M-12" edge="1">
                    <mxGeometry width="50" height="50" relative="1" as="geometry">
                        <mxPoint x="240" y="177.07000000000002" as="sourcePoint"/>
                        <mxPoint y="178.07000000000002" as="targetPoint"/>
                    </mxGeometry>
                </mxCell>
                <mxCell id="hNbSL6XgEmBNJISSKw9M-53" value="" style="endArrow=none;dashed=1;html=1;rounded=0;entryX=1;entryY=0.25;entryDx=0;entryDy=0;strokeWidth=0.3;" parent="hNbSL6XgEmBNJISSKw9M-12" edge="1">
                    <mxGeometry width="50" height="50" relative="1" as="geometry">
                        <mxPoint y="218.07000000000002" as="sourcePoint"/>
                        <mxPoint x="240" y="218.07000000000002" as="targetPoint"/>
                    </mxGeometry>
                </mxCell>
                <mxCell id="hNbSL6XgEmBNJISSKw9M-54" value="" style="endArrow=none;dashed=1;html=1;rounded=0;entryX=0;entryY=0.084;entryDx=0;entryDy=0;entryPerimeter=0;strokeWidth=0.3;exitX=1.002;exitY=0.078;exitDx=0;exitDy=0;exitPerimeter=0;" parent="hNbSL6XgEmBNJISSKw9M-12" edge="1">
                    <mxGeometry width="50" height="50" relative="1" as="geometry">
                        <mxPoint x="240" y="21.76000000000002" as="sourcePoint"/>
                        <mxPoint y="22.76000000000002" as="targetPoint"/>
                    </mxGeometry>
                </mxCell>
                <mxCell id="hNbSL6XgEmBNJISSKw9M-55" value="" style="endArrow=none;dashed=1;html=1;rounded=0;entryX=1;entryY=0.25;entryDx=0;entryDy=0;strokeWidth=0.3;" parent="hNbSL6XgEmBNJISSKw9M-12" edge="1">
                    <mxGeometry width="50" height="50" relative="1" as="geometry">
                        <mxPoint y="62.76000000000002" as="sourcePoint"/>
                        <mxPoint x="240" y="62.76000000000002" as="targetPoint"/>
                    </mxGeometry>
                </mxCell>
                <mxCell id="hNbSL6XgEmBNJISSKw9M-26" value="" style="rounded=0;whiteSpace=wrap;html=1;strokeColor=none;rotation=-90;" parent="hNbSL6XgEmBNJISSKw9M-12" vertex="1">
                    <mxGeometry x="15" y="99.75999999999999" width="210" height="40" as="geometry"/>
                </mxCell>
                <mxCell id="hNbSL6XgEmBNJISSKw9M-15" value="" style="rounded=0;whiteSpace=wrap;html=1;strokeColor=none;" parent="hNbSL6XgEmBNJISSKw9M-12" vertex="1">
                    <mxGeometry x="15" y="99.88" width="210" height="40" as="geometry"/>
                </mxCell>
                <mxCell id="hNbSL6XgEmBNJISSKw9M-29" value="..." style="text;html=1;align=center;verticalAlign=middle;whiteSpace=wrap;rounded=0;rotation=90;" parent="hNbSL6XgEmBNJISSKw9M-12" vertex="1">
                    <mxGeometry x="15" y="104.76000000000002" width="60" height="30" as="geometry"/>
                </mxCell>
                <mxCell id="hNbSL6XgEmBNJISSKw9M-30" value="..." style="text;html=1;align=center;verticalAlign=middle;whiteSpace=wrap;rounded=0;rotation=90;" parent="hNbSL6XgEmBNJISSKw9M-12" vertex="1">
                    <mxGeometry x="173" y="104.76000000000002" width="60" height="30" as="geometry"/>
                </mxCell>
                <mxCell id="hNbSL6XgEmBNJISSKw9M-27" value="..." style="text;html=1;align=center;verticalAlign=middle;whiteSpace=wrap;rounded=0;" parent="hNbSL6XgEmBNJISSKw9M-12" vertex="1">
                    <mxGeometry x="90" y="182.76000000000002" width="60" height="30" as="geometry"/>
                </mxCell>
                <mxCell id="hNbSL6XgEmBNJISSKw9M-28" value="..." style="text;html=1;align=center;verticalAlign=middle;whiteSpace=wrap;rounded=0;" parent="hNbSL6XgEmBNJISSKw9M-12" vertex="1">
                    <mxGeometry x="90" y="21.76000000000002" width="60" height="30" as="geometry"/>
                </mxCell>
                <mxCell id="hNbSL6XgEmBNJISSKw9M-80" value="" style="endArrow=classic;html=1;rounded=0;strokeColor=#CC0000;" parent="hNbSL6XgEmBNJISSKw9M-12" edge="1">
                    <mxGeometry width="50" height="50" relative="1" as="geometry">
                        <mxPoint x="30" y="22.76000000000002" as="sourcePoint"/>
                        <mxPoint x="50" y="22.76000000000002" as="targetPoint"/>
                    </mxGeometry>
                </mxCell>
                <mxCell id="hNbSL6XgEmBNJISSKw9M-81" value="" style="endArrow=classic;html=1;rounded=0;strokeColor=#CC0000;" parent="hNbSL6XgEmBNJISSKw9M-12" edge="1">
                    <mxGeometry width="50" height="50" relative="1" as="geometry">
                        <mxPoint x="30" y="62.76000000000002" as="sourcePoint"/>
                        <mxPoint x="50" y="62.76000000000002" as="targetPoint"/>
                    </mxGeometry>
                </mxCell>
                <mxCell id="hNbSL6XgEmBNJISSKw9M-82" value="" style="endArrow=classic;html=1;rounded=0;strokeColor=#CC0000;" parent="hNbSL6XgEmBNJISSKw9M-12" edge="1">
                    <mxGeometry width="50" height="50" relative="1" as="geometry">
                        <mxPoint x="31" y="177.39000000000001" as="sourcePoint"/>
                        <mxPoint x="51" y="177.39000000000001" as="targetPoint"/>
                    </mxGeometry>
                </mxCell>
                <mxCell id="hNbSL6XgEmBNJISSKw9M-83" value="" style="endArrow=classic;html=1;rounded=0;strokeColor=#CC0000;" parent="hNbSL6XgEmBNJISSKw9M-12" edge="1">
                    <mxGeometry width="50" height="50" relative="1" as="geometry">
                        <mxPoint x="31" y="218.39000000000001" as="sourcePoint"/>
                        <mxPoint x="51" y="218.39000000000001" as="targetPoint"/>
                    </mxGeometry>
                </mxCell>
                <mxCell id="hNbSL6XgEmBNJISSKw9M-105" value="" style="endArrow=classic;html=1;rounded=0;strokeColor=#0000FF;" parent="hNbSL6XgEmBNJISSKw9M-12" edge="1">
                    <mxGeometry width="50" height="50" relative="1" as="geometry">
                        <mxPoint x="60" y="208.76000000000002" as="sourcePoint"/>
                        <mxPoint x="60" y="188.76000000000002" as="targetPoint"/>
                    </mxGeometry>
                </mxCell>
                <mxCell id="hNbSL6XgEmBNJISSKw9M-106" value="" style="endArrow=classic;html=1;rounded=0;strokeColor=#0000FF;" parent="hNbSL6XgEmBNJISSKw9M-12" edge="1">
                    <mxGeometry width="50" height="50" relative="1" as="geometry">
                        <mxPoint x="219.90999999999997" y="208.76000000000002" as="sourcePoint"/>
                        <mxPoint x="219.90999999999997" y="188.76000000000002" as="targetPoint"/>
                    </mxGeometry>
                </mxCell>
                <mxCell id="hNbSL6XgEmBNJISSKw9M-107" value="" style="endArrow=classic;html=1;rounded=0;strokeColor=#0000FF;" parent="hNbSL6XgEmBNJISSKw9M-12" edge="1">
                    <mxGeometry width="50" height="50" relative="1" as="geometry">
                        <mxPoint x="179.72000000000003" y="209.76000000000002" as="sourcePoint"/>
                        <mxPoint x="179.72000000000003" y="189.76000000000002" as="targetPoint"/>
                    </mxGeometry>
                </mxCell>
                <mxCell id="hNbSL6XgEmBNJISSKw9M-143" value="" style="ellipse;whiteSpace=wrap;html=1;aspect=fixed;fillColor=#00FF00;strokeColor=#00FF00;" parent="hNbSL6XgEmBNJISSKw9M-12" vertex="1">
                    <mxGeometry x="58.88" y="20.76000000000002" width="3" height="3" as="geometry"/>
                </mxCell>
                <mxCell id="hNbSL6XgEmBNJISSKw9M-144" value="" style="ellipse;whiteSpace=wrap;html=1;aspect=fixed;fillColor=#00FF00;strokeColor=#00FF00;" parent="hNbSL6XgEmBNJISSKw9M-12" vertex="1">
                    <mxGeometry x="17.88" y="20.76000000000002" width="3" height="3" as="geometry"/>
                </mxCell>
                <mxCell id="hNbSL6XgEmBNJISSKw9M-145" value="" style="ellipse;whiteSpace=wrap;html=1;aspect=fixed;fillColor=#00FF00;strokeColor=#00FF00;" parent="hNbSL6XgEmBNJISSKw9M-12" vertex="1">
                    <mxGeometry x="17.88" y="60.76000000000002" width="3" height="3" as="geometry"/>
                </mxCell>
                <mxCell id="hNbSL6XgEmBNJISSKw9M-146" value="" style="ellipse;whiteSpace=wrap;html=1;aspect=fixed;fillColor=#00FF00;strokeColor=#00FF00;" parent="hNbSL6XgEmBNJISSKw9M-12" vertex="1">
                    <mxGeometry x="58.88" y="61.76000000000002" width="3" height="3" as="geometry"/>
                </mxCell>
                <mxCell id="hNbSL6XgEmBNJISSKw9M-13" value="u index" style="text;html=1;align=center;verticalAlign=middle;whiteSpace=wrap;rounded=0;fontFamily=Times New Roman;fontColor=#CC0000;" parent="1" vertex="1">
                    <mxGeometry x="340" y="354" width="50" height="20" as="geometry"/>
                </mxCell>
                <mxCell id="hNbSL6XgEmBNJISSKw9M-14" value="v index" style="text;html=1;align=center;verticalAlign=middle;whiteSpace=wrap;rounded=0;fontFamily=Times New Roman;fontColor=#0000FF;" parent="1" vertex="1">
                    <mxGeometry x="40" y="34" width="50" height="20" as="geometry"/>
                </mxCell>
                <mxCell id="hNbSL6XgEmBNJISSKw9M-56" value="" style="endArrow=classic;html=1;rounded=0;strokeColor=#000000;" parent="1" edge="1">
                    <mxGeometry width="50" height="50" relative="1" as="geometry">
                        <mxPoint x="80" y="347" as="sourcePoint"/>
                        <mxPoint x="340" y="347" as="targetPoint"/>
                    </mxGeometry>
                </mxCell>
                <mxCell id="hNbSL6XgEmBNJISSKw9M-57" value="scalar index" style="text;html=1;align=center;verticalAlign=middle;whiteSpace=wrap;rounded=0;fontFamily=Times New Roman;fontColor=#000000;" parent="1" vertex="1">
                    <mxGeometry x="340" y="337" width="70" height="20" as="geometry"/>
                </mxCell>
                <mxCell id="hNbSL6XgEmBNJISSKw9M-58" value="" style="endArrow=classic;html=1;rounded=0;strokeColor=#000000;" parent="1" edge="1">
                    <mxGeometry width="50" height="50" relative="1" as="geometry">
                        <mxPoint x="67" y="320" as="sourcePoint"/>
                        <mxPoint x="67" y="60" as="targetPoint"/>
                    </mxGeometry>
                </mxCell>
                <mxCell id="hNbSL6XgEmBNJISSKw9M-59" value="scalar index" style="text;html=1;align=center;verticalAlign=middle;whiteSpace=wrap;rounded=0;fontFamily=Times New Roman;fontColor=#000000;" parent="1" vertex="1">
                    <mxGeometry x="68" y="54" width="70" height="20" as="geometry"/>
                </mxCell>
                <mxCell id="hNbSL6XgEmBNJISSKw9M-60" value="0" style="text;html=1;align=center;verticalAlign=middle;whiteSpace=wrap;rounded=0;fontFamily=Times New Roman;" parent="1" vertex="1">
                    <mxGeometry x="90" y="330" width="20" height="20" as="geometry"/>
                </mxCell>
                <mxCell id="hNbSL6XgEmBNJISSKw9M-61" value="1" style="text;html=1;align=center;verticalAlign=middle;whiteSpace=wrap;rounded=0;fontFamily=Times New Roman;" parent="1" vertex="1">
                    <mxGeometry x="130" y="330" width="20" height="20" as="geometry"/>
                </mxCell>
                <mxCell id="hNbSL6XgEmBNJISSKw9M-62" value="nx-1" style="text;html=1;align=center;verticalAlign=middle;whiteSpace=wrap;rounded=0;fontFamily=Times New Roman;" parent="1" vertex="1">
                    <mxGeometry x="284.5" y="330" width="30" height="20" as="geometry"/>
                </mxCell>
                <mxCell id="hNbSL6XgEmBNJISSKw9M-63" value="nx-2" style="text;html=1;align=center;verticalAlign=middle;whiteSpace=wrap;rounded=0;fontFamily=Times New Roman;" parent="1" vertex="1">
                    <mxGeometry x="247" y="330" width="30" height="20" as="geometry"/>
                </mxCell>
                <mxCell id="hNbSL6XgEmBNJISSKw9M-64" value="0" style="text;html=1;align=center;verticalAlign=middle;whiteSpace=wrap;rounded=0;fontFamily=Times New Roman;fontColor=#CC0000;" parent="1" vertex="1">
                    <mxGeometry x="70" y="348" width="20" height="20" as="geometry"/>
                </mxCell>
                <mxCell id="hNbSL6XgEmBNJISSKw9M-65" value="1" style="text;html=1;align=center;verticalAlign=middle;whiteSpace=wrap;rounded=0;fontFamily=Times New Roman;fontColor=#CC0000;" parent="1" vertex="1">
                    <mxGeometry x="110" y="348" width="20" height="20" as="geometry"/>
                </mxCell>
                <mxCell id="hNbSL6XgEmBNJISSKw9M-66" value="nx-1" style="text;html=1;align=center;verticalAlign=middle;whiteSpace=wrap;rounded=0;fontFamily=Times New Roman;fontColor=#CC0000;" parent="1" vertex="1">
                    <mxGeometry x="266" y="348" width="30" height="20" as="geometry"/>
                </mxCell>
                <mxCell id="hNbSL6XgEmBNJISSKw9M-67" value="nx-2" style="text;html=1;align=center;verticalAlign=middle;whiteSpace=wrap;rounded=0;fontFamily=Times New Roman;fontColor=#CC0000;" parent="1" vertex="1">
                    <mxGeometry x="225" y="348" width="30" height="20" as="geometry"/>
                </mxCell>
                <mxCell id="hNbSL6XgEmBNJISSKw9M-68" value="2" style="text;html=1;align=center;verticalAlign=middle;whiteSpace=wrap;rounded=0;fontFamily=Times New Roman;fontColor=#CC0000;" parent="1" vertex="1">
                    <mxGeometry x="150" y="348" width="20" height="20" as="geometry"/>
                </mxCell>
                <mxCell id="hNbSL6XgEmBNJISSKw9M-69" value="nx" style="text;html=1;align=center;verticalAlign=middle;whiteSpace=wrap;rounded=0;fontFamily=Times New Roman;fontColor=#CC0000;" parent="1" vertex="1">
                    <mxGeometry x="303" y="348" width="30" height="20" as="geometry"/>
                </mxCell>
                <mxCell id="hNbSL6XgEmBNJISSKw9M-70" value="0" style="text;html=1;align=center;verticalAlign=middle;whiteSpace=wrap;rounded=0;fontFamily=Times New Roman;" parent="1" vertex="1">
                    <mxGeometry x="48" y="290" width="20" height="20" as="geometry"/>
                </mxCell>
                <mxCell id="hNbSL6XgEmBNJISSKw9M-71" value="1" style="text;html=1;align=center;verticalAlign=middle;whiteSpace=wrap;rounded=0;fontFamily=Times New Roman;" parent="1" vertex="1">
                    <mxGeometry x="48" y="250" width="20" height="20" as="geometry"/>
                </mxCell>
                <mxCell id="hNbSL6XgEmBNJISSKw9M-72" value="ny-2" style="text;html=1;align=center;verticalAlign=middle;whiteSpace=wrap;rounded=0;fontFamily=Times New Roman;" parent="1" vertex="1">
                    <mxGeometry x="38" y="132" width="30" height="20" as="geometry"/>
                </mxCell>
                <mxCell id="hNbSL6XgEmBNJISSKw9M-73" value="ny-1" style="text;html=1;align=center;verticalAlign=middle;whiteSpace=wrap;rounded=0;fontFamily=Times New Roman;" parent="1" vertex="1">
                    <mxGeometry x="40" y="94" width="28" height="20" as="geometry"/>
                </mxCell>
                <mxCell id="hNbSL6XgEmBNJISSKw9M-74" value="0" style="text;html=1;align=center;verticalAlign=middle;whiteSpace=wrap;rounded=0;fontFamily=Times New Roman;fontColor=#0000FF;" parent="1" vertex="1">
                    <mxGeometry x="19" y="310" width="20" height="20" as="geometry"/>
                </mxCell>
                <mxCell id="hNbSL6XgEmBNJISSKw9M-75" value="1" style="text;html=1;align=center;verticalAlign=middle;whiteSpace=wrap;rounded=0;fontFamily=Times New Roman;fontColor=#0000FF;" parent="1" vertex="1">
                    <mxGeometry x="19" y="270" width="20" height="20" as="geometry"/>
                </mxCell>
                <mxCell id="hNbSL6XgEmBNJISSKw9M-76" value="2" style="text;html=1;align=center;verticalAlign=middle;whiteSpace=wrap;rounded=0;fontFamily=Times New Roman;fontColor=#0000FF;" parent="1" vertex="1">
                    <mxGeometry x="19" y="230" width="20" height="20" as="geometry"/>
                </mxCell>
                <mxCell id="hNbSL6XgEmBNJISSKw9M-77" value="ny-2" style="text;html=1;align=center;verticalAlign=middle;whiteSpace=wrap;rounded=0;fontFamily=Times New Roman;fontColor=#0000FF;" parent="1" vertex="1">
                    <mxGeometry x="9" y="150" width="30" height="20" as="geometry"/>
                </mxCell>
                <mxCell id="hNbSL6XgEmBNJISSKw9M-78" value="ny-1" style="text;html=1;align=center;verticalAlign=middle;whiteSpace=wrap;rounded=0;fontFamily=Times New Roman;fontColor=#0000FF;" parent="1" vertex="1">
                    <mxGeometry x="10" y="114" width="29" height="20" as="geometry"/>
                </mxCell>
                <mxCell id="hNbSL6XgEmBNJISSKw9M-79" value="ny" style="text;html=1;align=center;verticalAlign=middle;whiteSpace=wrap;rounded=0;fontFamily=Times New Roman;fontColor=#0000FF;" parent="1" vertex="1">
                    <mxGeometry x="9" y="74" width="30" height="20" as="geometry"/>
                </mxCell>
                <mxCell id="hNbSL6XgEmBNJISSKw9M-84" value="" style="endArrow=classic;html=1;rounded=0;strokeColor=#CC0000;" parent="1" edge="1">
                    <mxGeometry width="50" height="50" relative="1" as="geometry">
                        <mxPoint x="151" y="103" as="sourcePoint"/>
                        <mxPoint x="171" y="103" as="targetPoint"/>
                    </mxGeometry>
                </mxCell>
                <mxCell id="hNbSL6XgEmBNJISSKw9M-85" value="" style="endArrow=classic;html=1;rounded=0;strokeColor=#CC0000;" parent="1" edge="1">
                    <mxGeometry width="50" height="50" relative="1" as="geometry">
                        <mxPoint x="151" y="143" as="sourcePoint"/>
                        <mxPoint x="171" y="143" as="targetPoint"/>
                    </mxGeometry>
                </mxCell>
                <mxCell id="hNbSL6XgEmBNJISSKw9M-86" value="" style="endArrow=classic;html=1;rounded=0;strokeColor=#CC0000;" parent="1" edge="1">
                    <mxGeometry width="50" height="50" relative="1" as="geometry">
                        <mxPoint x="152" y="257.63" as="sourcePoint"/>
                        <mxPoint x="172" y="257.63" as="targetPoint"/>
                    </mxGeometry>
                </mxCell>
                <mxCell id="hNbSL6XgEmBNJISSKw9M-87" value="" style="endArrow=classic;html=1;rounded=0;strokeColor=#CC0000;" parent="1" edge="1">
                    <mxGeometry width="50" height="50" relative="1" as="geometry">
                        <mxPoint x="152" y="298.63" as="sourcePoint"/>
                        <mxPoint x="172" y="298.63" as="targetPoint"/>
                    </mxGeometry>
                </mxCell>
                <mxCell id="hNbSL6XgEmBNJISSKw9M-88" value="" style="endArrow=classic;html=1;rounded=0;strokeColor=#CC0000;" parent="1" edge="1">
                    <mxGeometry width="50" height="50" relative="1" as="geometry">
                        <mxPoint x="74" y="103" as="sourcePoint"/>
                        <mxPoint x="94" y="103" as="targetPoint"/>
                    </mxGeometry>
                </mxCell>
                <mxCell id="hNbSL6XgEmBNJISSKw9M-89" value="" style="endArrow=classic;html=1;rounded=0;strokeColor=#CC0000;" parent="1" edge="1">
                    <mxGeometry width="50" height="50" relative="1" as="geometry">
                        <mxPoint x="74" y="143" as="sourcePoint"/>
                        <mxPoint x="94" y="143" as="targetPoint"/>
                    </mxGeometry>
                </mxCell>
                <mxCell id="hNbSL6XgEmBNJISSKw9M-90" value="" style="endArrow=classic;html=1;rounded=0;strokeColor=#CC0000;" parent="1" edge="1">
                    <mxGeometry width="50" height="50" relative="1" as="geometry">
                        <mxPoint x="75" y="258.63" as="sourcePoint"/>
                        <mxPoint x="95" y="258.63" as="targetPoint"/>
                    </mxGeometry>
                </mxCell>
                <mxCell id="hNbSL6XgEmBNJISSKw9M-91" value="" style="endArrow=classic;html=1;rounded=0;strokeColor=#CC0000;" parent="1" edge="1">
                    <mxGeometry width="50" height="50" relative="1" as="geometry">
                        <mxPoint x="75" y="298.63" as="sourcePoint"/>
                        <mxPoint x="95" y="298.63" as="targetPoint"/>
                    </mxGeometry>
                </mxCell>
                <mxCell id="hNbSL6XgEmBNJISSKw9M-92" value="" style="endArrow=classic;html=1;rounded=0;strokeColor=#CC0000;" parent="1" edge="1">
                    <mxGeometry width="50" height="50" relative="1" as="geometry">
                        <mxPoint x="230" y="102" as="sourcePoint"/>
                        <mxPoint x="250" y="102" as="targetPoint"/>
                    </mxGeometry>
                </mxCell>
                <mxCell id="hNbSL6XgEmBNJISSKw9M-93" value="" style="endArrow=classic;html=1;rounded=0;strokeColor=#CC0000;" parent="1" edge="1">
                    <mxGeometry width="50" height="50" relative="1" as="geometry">
                        <mxPoint x="230" y="143" as="sourcePoint"/>
                        <mxPoint x="250" y="143" as="targetPoint"/>
                    </mxGeometry>
                </mxCell>
                <mxCell id="hNbSL6XgEmBNJISSKw9M-94" value="" style="endArrow=classic;html=1;rounded=0;strokeColor=#CC0000;" parent="1" edge="1">
                    <mxGeometry width="50" height="50" relative="1" as="geometry">
                        <mxPoint x="231" y="257.63" as="sourcePoint"/>
                        <mxPoint x="251" y="257.63" as="targetPoint"/>
                    </mxGeometry>
                </mxCell>
                <mxCell id="hNbSL6XgEmBNJISSKw9M-95" value="" style="endArrow=classic;html=1;rounded=0;strokeColor=#CC0000;" parent="1" edge="1">
                    <mxGeometry width="50" height="50" relative="1" as="geometry">
                        <mxPoint x="231" y="298.63" as="sourcePoint"/>
                        <mxPoint x="251" y="298.63" as="targetPoint"/>
                    </mxGeometry>
                </mxCell>
                <mxCell id="hNbSL6XgEmBNJISSKw9M-96" value="" style="endArrow=classic;html=1;rounded=0;strokeColor=#CC0000;" parent="1" edge="1">
                    <mxGeometry width="50" height="50" relative="1" as="geometry">
                        <mxPoint x="271" y="102" as="sourcePoint"/>
                        <mxPoint x="291" y="102" as="targetPoint"/>
                    </mxGeometry>
                </mxCell>
                <mxCell id="hNbSL6XgEmBNJISSKw9M-97" value="" style="endArrow=classic;html=1;rounded=0;strokeColor=#CC0000;" parent="1" edge="1">
                    <mxGeometry width="50" height="50" relative="1" as="geometry">
                        <mxPoint x="271" y="143" as="sourcePoint"/>
                        <mxPoint x="291" y="143" as="targetPoint"/>
                    </mxGeometry>
                </mxCell>
                <mxCell id="hNbSL6XgEmBNJISSKw9M-98" value="" style="endArrow=classic;html=1;rounded=0;strokeColor=#CC0000;" parent="1" edge="1">
                    <mxGeometry width="50" height="50" relative="1" as="geometry">
                        <mxPoint x="272" y="257.63" as="sourcePoint"/>
                        <mxPoint x="292" y="257.63" as="targetPoint"/>
                    </mxGeometry>
                </mxCell>
                <mxCell id="hNbSL6XgEmBNJISSKw9M-99" value="" style="endArrow=classic;html=1;rounded=0;strokeColor=#CC0000;" parent="1" edge="1">
                    <mxGeometry width="50" height="50" relative="1" as="geometry">
                        <mxPoint x="272" y="298.63" as="sourcePoint"/>
                        <mxPoint x="292" y="298.63" as="targetPoint"/>
                    </mxGeometry>
                </mxCell>
                <mxCell id="hNbSL6XgEmBNJISSKw9M-100" value="" style="endArrow=classic;html=1;rounded=0;strokeColor=#CC0000;" parent="1" edge="1">
                    <mxGeometry width="50" height="50" relative="1" as="geometry">
                        <mxPoint x="310" y="102" as="sourcePoint"/>
                        <mxPoint x="330" y="102" as="targetPoint"/>
                    </mxGeometry>
                </mxCell>
                <mxCell id="hNbSL6XgEmBNJISSKw9M-101" value="" style="endArrow=classic;html=1;rounded=0;strokeColor=#CC0000;" parent="1" edge="1">
                    <mxGeometry width="50" height="50" relative="1" as="geometry">
                        <mxPoint x="310" y="143" as="sourcePoint"/>
                        <mxPoint x="330" y="143" as="targetPoint"/>
                    </mxGeometry>
                </mxCell>
                <mxCell id="hNbSL6XgEmBNJISSKw9M-102" value="" style="endArrow=classic;html=1;rounded=0;strokeColor=#CC0000;" parent="1" edge="1">
                    <mxGeometry width="50" height="50" relative="1" as="geometry">
                        <mxPoint x="311" y="257.63" as="sourcePoint"/>
                        <mxPoint x="331" y="257.63" as="targetPoint"/>
                    </mxGeometry>
                </mxCell>
                <mxCell id="hNbSL6XgEmBNJISSKw9M-103" value="" style="endArrow=classic;html=1;rounded=0;strokeColor=#CC0000;" parent="1" edge="1">
                    <mxGeometry width="50" height="50" relative="1" as="geometry">
                        <mxPoint x="311" y="298.63" as="sourcePoint"/>
                        <mxPoint x="331" y="298.63" as="targetPoint"/>
                    </mxGeometry>
                </mxCell>
                <mxCell id="hNbSL6XgEmBNJISSKw9M-104" value="" style="endArrow=classic;html=1;rounded=0;strokeColor=#0000FF;" parent="1" edge="1">
                    <mxGeometry width="50" height="50" relative="1" as="geometry">
                        <mxPoint x="99.81" y="290" as="sourcePoint"/>
                        <mxPoint x="99.81" y="270" as="targetPoint"/>
                    </mxGeometry>
                </mxCell>
                <mxCell id="hNbSL6XgEmBNJISSKw9M-108" value="" style="endArrow=classic;html=1;rounded=0;strokeColor=#0000FF;" parent="1" edge="1">
                    <mxGeometry width="50" height="50" relative="1" as="geometry">
                        <mxPoint x="140" y="328" as="sourcePoint"/>
                        <mxPoint x="140" y="308" as="targetPoint"/>
                    </mxGeometry>
                </mxCell>
                <mxCell id="hNbSL6XgEmBNJISSKw9M-109" value="" style="endArrow=classic;html=1;rounded=0;strokeColor=#0000FF;" parent="1" edge="1">
                    <mxGeometry width="50" height="50" relative="1" as="geometry">
                        <mxPoint x="299.90999999999997" y="328" as="sourcePoint"/>
                        <mxPoint x="299.90999999999997" y="308" as="targetPoint"/>
                    </mxGeometry>
                </mxCell>
                <mxCell id="hNbSL6XgEmBNJISSKw9M-110" value="" style="endArrow=classic;html=1;rounded=0;strokeColor=#0000FF;" parent="1" edge="1">
                    <mxGeometry width="50" height="50" relative="1" as="geometry">
                        <mxPoint x="259.72" y="329" as="sourcePoint"/>
                        <mxPoint x="259.72" y="309" as="targetPoint"/>
                    </mxGeometry>
                </mxCell>
                <mxCell id="hNbSL6XgEmBNJISSKw9M-111" value="" style="endArrow=classic;html=1;rounded=0;strokeColor=#0000FF;" parent="1" edge="1">
                    <mxGeometry width="50" height="50" relative="1" as="geometry">
                        <mxPoint x="99.81" y="329" as="sourcePoint"/>
                        <mxPoint x="99.81" y="309" as="targetPoint"/>
                    </mxGeometry>
                </mxCell>
                <mxCell id="hNbSL6XgEmBNJISSKw9M-112" value="" style="endArrow=classic;html=1;rounded=0;strokeColor=#0000FF;" parent="1" edge="1">
                    <mxGeometry width="50" height="50" relative="1" as="geometry">
                        <mxPoint x="140" y="249" as="sourcePoint"/>
                        <mxPoint x="140" y="229" as="targetPoint"/>
                    </mxGeometry>
                </mxCell>
                <mxCell id="hNbSL6XgEmBNJISSKw9M-113" value="" style="endArrow=classic;html=1;rounded=0;strokeColor=#0000FF;" parent="1" edge="1">
                    <mxGeometry width="50" height="50" relative="1" as="geometry">
                        <mxPoint x="299.90999999999997" y="249" as="sourcePoint"/>
                        <mxPoint x="299.90999999999997" y="229" as="targetPoint"/>
                    </mxGeometry>
                </mxCell>
                <mxCell id="hNbSL6XgEmBNJISSKw9M-114" value="" style="endArrow=classic;html=1;rounded=0;strokeColor=#0000FF;" parent="1" edge="1">
                    <mxGeometry width="50" height="50" relative="1" as="geometry">
                        <mxPoint x="259.72" y="250" as="sourcePoint"/>
                        <mxPoint x="259.72" y="230" as="targetPoint"/>
                    </mxGeometry>
                </mxCell>
                <mxCell id="hNbSL6XgEmBNJISSKw9M-115" value="" style="endArrow=classic;html=1;rounded=0;strokeColor=#0000FF;" parent="1" edge="1">
                    <mxGeometry width="50" height="50" relative="1" as="geometry">
                        <mxPoint x="99.81" y="250" as="sourcePoint"/>
                        <mxPoint x="99.81" y="230" as="targetPoint"/>
                    </mxGeometry>
                </mxCell>
                <mxCell id="hNbSL6XgEmBNJISSKw9M-116" value="" style="endArrow=classic;html=1;rounded=0;strokeColor=#0000FF;" parent="1" edge="1">
                    <mxGeometry width="50" height="50" relative="1" as="geometry">
                        <mxPoint x="140" y="170" as="sourcePoint"/>
                        <mxPoint x="140" y="150" as="targetPoint"/>
                    </mxGeometry>
                </mxCell>
                <mxCell id="hNbSL6XgEmBNJISSKw9M-117" value="" style="endArrow=classic;html=1;rounded=0;strokeColor=#0000FF;" parent="1" edge="1">
                    <mxGeometry width="50" height="50" relative="1" as="geometry">
                        <mxPoint x="299.90999999999997" y="170" as="sourcePoint"/>
                        <mxPoint x="299.90999999999997" y="150" as="targetPoint"/>
                    </mxGeometry>
                </mxCell>
                <mxCell id="hNbSL6XgEmBNJISSKw9M-118" value="" style="endArrow=classic;html=1;rounded=0;strokeColor=#0000FF;" parent="1" edge="1">
                    <mxGeometry width="50" height="50" relative="1" as="geometry">
                        <mxPoint x="259.72" y="171" as="sourcePoint"/>
                        <mxPoint x="259.72" y="151" as="targetPoint"/>
                    </mxGeometry>
                </mxCell>
                <mxCell id="hNbSL6XgEmBNJISSKw9M-119" value="" style="endArrow=classic;html=1;rounded=0;strokeColor=#0000FF;" parent="1" edge="1">
                    <mxGeometry width="50" height="50" relative="1" as="geometry">
                        <mxPoint x="99.81" y="171" as="sourcePoint"/>
                        <mxPoint x="99.81" y="151" as="targetPoint"/>
                    </mxGeometry>
                </mxCell>
                <mxCell id="hNbSL6XgEmBNJISSKw9M-120" value="" style="endArrow=classic;html=1;rounded=0;strokeColor=#0000FF;" parent="1" edge="1">
                    <mxGeometry width="50" height="50" relative="1" as="geometry">
                        <mxPoint x="140" y="130" as="sourcePoint"/>
                        <mxPoint x="140" y="110" as="targetPoint"/>
                    </mxGeometry>
                </mxCell>
                <mxCell id="hNbSL6XgEmBNJISSKw9M-121" value="" style="endArrow=classic;html=1;rounded=0;strokeColor=#0000FF;" parent="1" edge="1">
                    <mxGeometry width="50" height="50" relative="1" as="geometry">
                        <mxPoint x="299.90999999999997" y="130" as="sourcePoint"/>
                        <mxPoint x="299.90999999999997" y="110" as="targetPoint"/>
                    </mxGeometry>
                </mxCell>
                <mxCell id="hNbSL6XgEmBNJISSKw9M-122" value="" style="endArrow=classic;html=1;rounded=0;strokeColor=#0000FF;" parent="1" edge="1">
                    <mxGeometry width="50" height="50" relative="1" as="geometry">
                        <mxPoint x="259.72" y="131" as="sourcePoint"/>
                        <mxPoint x="259.72" y="111" as="targetPoint"/>
                    </mxGeometry>
                </mxCell>
                <mxCell id="hNbSL6XgEmBNJISSKw9M-123" value="" style="endArrow=classic;html=1;rounded=0;strokeColor=#0000FF;" parent="1" edge="1">
                    <mxGeometry width="50" height="50" relative="1" as="geometry">
                        <mxPoint x="99.81" y="131" as="sourcePoint"/>
                        <mxPoint x="99.81" y="111" as="targetPoint"/>
                    </mxGeometry>
                </mxCell>
                <mxCell id="hNbSL6XgEmBNJISSKw9M-124" value="" style="endArrow=classic;html=1;rounded=0;strokeColor=#0000FF;" parent="1" edge="1">
                    <mxGeometry width="50" height="50" relative="1" as="geometry">
                        <mxPoint x="140" y="90" as="sourcePoint"/>
                        <mxPoint x="140" y="70" as="targetPoint"/>
                    </mxGeometry>
                </mxCell>
                <mxCell id="hNbSL6XgEmBNJISSKw9M-125" value="" style="endArrow=classic;html=1;rounded=0;strokeColor=#0000FF;" parent="1" edge="1">
                    <mxGeometry width="50" height="50" relative="1" as="geometry">
                        <mxPoint x="299.90999999999997" y="90" as="sourcePoint"/>
                        <mxPoint x="299.90999999999997" y="70" as="targetPoint"/>
                    </mxGeometry>
                </mxCell>
                <mxCell id="hNbSL6XgEmBNJISSKw9M-126" value="" style="endArrow=classic;html=1;rounded=0;strokeColor=#0000FF;" parent="1" edge="1">
                    <mxGeometry width="50" height="50" relative="1" as="geometry">
                        <mxPoint x="259.72" y="91" as="sourcePoint"/>
                        <mxPoint x="259.72" y="71" as="targetPoint"/>
                    </mxGeometry>
                </mxCell>
                <mxCell id="hNbSL6XgEmBNJISSKw9M-127" value="" style="endArrow=classic;html=1;rounded=0;strokeColor=#0000FF;" parent="1" edge="1">
                    <mxGeometry width="50" height="50" relative="1" as="geometry">
                        <mxPoint x="99.81" y="91" as="sourcePoint"/>
                        <mxPoint x="99.81" y="71" as="targetPoint"/>
                    </mxGeometry>
                </mxCell>
                <mxCell id="hNbSL6XgEmBNJISSKw9M-129" value="" style="ellipse;whiteSpace=wrap;html=1;aspect=fixed;fillColor=#00FF00;strokeColor=#00FF00;" parent="1" vertex="1">
                    <mxGeometry x="298" y="100" width="3" height="3" as="geometry"/>
                </mxCell>
                <mxCell id="hNbSL6XgEmBNJISSKw9M-131" value="" style="ellipse;whiteSpace=wrap;html=1;aspect=fixed;fillColor=#00FF00;strokeColor=#00FF00;" parent="1" vertex="1">
                    <mxGeometry x="298" y="142" width="3" height="3" as="geometry"/>
                </mxCell>
                <mxCell id="hNbSL6XgEmBNJISSKw9M-132" value="" style="ellipse;whiteSpace=wrap;html=1;aspect=fixed;fillColor=#00FF00;strokeColor=#00FF00;" parent="1" vertex="1">
                    <mxGeometry x="258" y="100" width="3" height="3" as="geometry"/>
                </mxCell>
                <mxCell id="hNbSL6XgEmBNJISSKw9M-133" value="" style="ellipse;whiteSpace=wrap;html=1;aspect=fixed;fillColor=#00FF00;strokeColor=#00FF00;" parent="1" vertex="1">
                    <mxGeometry x="258" y="142" width="3" height="3" as="geometry"/>
                </mxCell>
                <mxCell id="hNbSL6XgEmBNJISSKw9M-134" value="" style="ellipse;whiteSpace=wrap;html=1;aspect=fixed;fillColor=#00FF00;strokeColor=#00FF00;" parent="1" vertex="1">
                    <mxGeometry x="298" y="256" width="3" height="3" as="geometry"/>
                </mxCell>
                <mxCell id="hNbSL6XgEmBNJISSKw9M-135" value="" style="ellipse;whiteSpace=wrap;html=1;aspect=fixed;fillColor=#00FF00;strokeColor=#00FF00;" parent="1" vertex="1">
                    <mxGeometry x="298" y="297" width="3" height="3" as="geometry"/>
                </mxCell>
                <mxCell id="hNbSL6XgEmBNJISSKw9M-136" value="" style="ellipse;whiteSpace=wrap;html=1;aspect=fixed;fillColor=#00FF00;strokeColor=#00FF00;" parent="1" vertex="1">
                    <mxGeometry x="258" y="256" width="3" height="3" as="geometry"/>
                </mxCell>
                <mxCell id="hNbSL6XgEmBNJISSKw9M-137" value="" style="ellipse;whiteSpace=wrap;html=1;aspect=fixed;fillColor=#00FF00;strokeColor=#00FF00;" parent="1" vertex="1">
                    <mxGeometry x="258" y="297" width="3" height="3" as="geometry"/>
                </mxCell>
                <mxCell id="hNbSL6XgEmBNJISSKw9M-138" value="" style="ellipse;whiteSpace=wrap;html=1;aspect=fixed;fillColor=#00FF00;strokeColor=#00FF00;" parent="1" vertex="1">
                    <mxGeometry x="139" y="257" width="3" height="3" as="geometry"/>
                </mxCell>
                <mxCell id="hNbSL6XgEmBNJISSKw9M-139" value="" style="ellipse;whiteSpace=wrap;html=1;aspect=fixed;fillColor=#00FF00;strokeColor=#00FF00;" parent="1" vertex="1">
                    <mxGeometry x="99" y="257" width="3" height="3" as="geometry"/>
                </mxCell>
                <mxCell id="hNbSL6XgEmBNJISSKw9M-140" value="" style="ellipse;whiteSpace=wrap;html=1;aspect=fixed;fillColor=#00FF00;strokeColor=#00FF00;" parent="1" vertex="1">
                    <mxGeometry x="99" y="298" width="3" height="3" as="geometry"/>
                </mxCell>
                <mxCell id="hNbSL6XgEmBNJISSKw9M-142" value="" style="ellipse;whiteSpace=wrap;html=1;aspect=fixed;fillColor=#00FF00;strokeColor=#00FF00;" parent="1" vertex="1">
                    <mxGeometry x="138" y="297" width="3" height="3" as="geometry"/>
                </mxCell>
            </root>
        </mxGraphModel>
    </diagram>
    <diagram name="一般項" id="4s9TKoa6KT6RYETwxB4G">
        <mxGraphModel dx="202" dy="143" grid="1" gridSize="10" guides="1" tooltips="1" connect="1" arrows="1" fold="1" page="1" pageScale="1" pageWidth="1390" pageHeight="360" math="0" shadow="0">
            <root>
                <mxCell id="yorJfVh0kJ0Bfh7YAZNg-0"/>
                <mxCell id="yorJfVh0kJ0Bfh7YAZNg-1" parent="yorJfVh0kJ0Bfh7YAZNg-0"/>
                <mxCell id="EkK7eUQm3t-pUeyv8moK-10" value="" style="endArrow=none;dashed=1;html=1;rounded=0;strokeWidth=0.3;" edge="1" parent="yorJfVh0kJ0Bfh7YAZNg-1">
                    <mxGeometry width="50" height="50" relative="1" as="geometry">
                        <mxPoint x="300" y="140" as="sourcePoint"/>
                        <mxPoint x="380" y="140" as="targetPoint"/>
                    </mxGeometry>
                </mxCell>
                <mxCell id="EkK7eUQm3t-pUeyv8moK-0" value="" style="endArrow=none;html=1;rounded=0;strokeWidth=0.3;" edge="1" parent="yorJfVh0kJ0Bfh7YAZNg-1">
                    <mxGeometry width="50" height="50" relative="1" as="geometry">
                        <mxPoint x="300" y="120" as="sourcePoint"/>
                        <mxPoint x="380" y="120" as="targetPoint"/>
                    </mxGeometry>
                </mxCell>
                <mxCell id="EkK7eUQm3t-pUeyv8moK-1" value="" style="endArrow=none;html=1;rounded=0;strokeWidth=0.3;" edge="1" parent="yorJfVh0kJ0Bfh7YAZNg-1">
                    <mxGeometry width="50" height="50" relative="1" as="geometry">
                        <mxPoint x="300" y="160" as="sourcePoint"/>
                        <mxPoint x="380" y="160" as="targetPoint"/>
                    </mxGeometry>
                </mxCell>
                <mxCell id="EkK7eUQm3t-pUeyv8moK-2" value="" style="endArrow=none;html=1;rounded=0;strokeWidth=0.3;" edge="1" parent="yorJfVh0kJ0Bfh7YAZNg-1">
                    <mxGeometry width="50" height="50" relative="1" as="geometry">
                        <mxPoint x="320" y="100" as="sourcePoint"/>
                        <mxPoint x="320" y="180" as="targetPoint"/>
                    </mxGeometry>
                </mxCell>
                <mxCell id="EkK7eUQm3t-pUeyv8moK-3" value="" style="endArrow=none;html=1;rounded=0;strokeWidth=0.3;" edge="1" parent="yorJfVh0kJ0Bfh7YAZNg-1">
                    <mxGeometry width="50" height="50" relative="1" as="geometry">
                        <mxPoint x="360" y="100" as="sourcePoint"/>
                        <mxPoint x="360" y="180" as="targetPoint"/>
                    </mxGeometry>
                </mxCell>
                <mxCell id="EkK7eUQm3t-pUeyv8moK-4" value="" style="endArrow=none;dashed=1;html=1;rounded=0;strokeWidth=0.3;" edge="1" parent="yorJfVh0kJ0Bfh7YAZNg-1">
                    <mxGeometry width="50" height="50" relative="1" as="geometry">
                        <mxPoint x="340" y="180" as="sourcePoint"/>
                        <mxPoint x="340" y="100" as="targetPoint"/>
                    </mxGeometry>
                </mxCell>
                <mxCell id="EkK7eUQm3t-pUeyv8moK-6" value="" style="endArrow=classic;html=1;rounded=0;strokeColor=#CC0000;" edge="1" parent="yorJfVh0kJ0Bfh7YAZNg-1">
                    <mxGeometry width="50" height="50" relative="1" as="geometry">
                        <mxPoint x="310" y="140" as="sourcePoint"/>
                        <mxPoint x="330" y="140" as="targetPoint"/>
                    </mxGeometry>
                </mxCell>
                <mxCell id="EkK7eUQm3t-pUeyv8moK-7" value="" style="endArrow=classic;html=1;rounded=0;strokeColor=#CC0000;" edge="1" parent="yorJfVh0kJ0Bfh7YAZNg-1">
                    <mxGeometry width="50" height="50" relative="1" as="geometry">
                        <mxPoint x="350" y="140" as="sourcePoint"/>
                        <mxPoint x="370" y="140" as="targetPoint"/>
                    </mxGeometry>
                </mxCell>
                <mxCell id="EkK7eUQm3t-pUeyv8moK-8" value="" style="endArrow=classic;html=1;rounded=0;strokeColor=#0000FF;" edge="1" parent="yorJfVh0kJ0Bfh7YAZNg-1">
                    <mxGeometry width="50" height="50" relative="1" as="geometry">
                        <mxPoint x="340" y="173" as="sourcePoint"/>
                        <mxPoint x="340" y="153" as="targetPoint"/>
                    </mxGeometry>
                </mxCell>
                <mxCell id="EkK7eUQm3t-pUeyv8moK-9" value="" style="endArrow=classic;html=1;rounded=0;strokeColor=#0000FF;" edge="1" parent="yorJfVh0kJ0Bfh7YAZNg-1">
                    <mxGeometry width="50" height="50" relative="1" as="geometry">
                        <mxPoint x="340" y="130" as="sourcePoint"/>
                        <mxPoint x="340" y="110" as="targetPoint"/>
                    </mxGeometry>
                </mxCell>
                <mxCell id="yorJfVh0kJ0Bfh7YAZNg-111" value="" style="ellipse;whiteSpace=wrap;html=1;aspect=fixed;fillColor=#00FF00;strokeColor=#00FF00;" vertex="1" parent="yorJfVh0kJ0Bfh7YAZNg-1">
                    <mxGeometry x="339" y="139" width="3" height="3" as="geometry"/>
                </mxCell>
                <mxCell id="EkK7eUQm3t-pUeyv8moK-13" value="" style="endArrow=none;dashed=1;html=1;rounded=0;strokeWidth=0.3;" edge="1" parent="yorJfVh0kJ0Bfh7YAZNg-1">
                    <mxGeometry width="50" height="50" relative="1" as="geometry">
                        <mxPoint x="300" y="180" as="sourcePoint"/>
                        <mxPoint x="300" y="100" as="targetPoint"/>
                    </mxGeometry>
                </mxCell>
                <mxCell id="EkK7eUQm3t-pUeyv8moK-14" value="" style="endArrow=none;dashed=1;html=1;rounded=0;strokeWidth=0.3;" edge="1" parent="yorJfVh0kJ0Bfh7YAZNg-1">
                    <mxGeometry width="50" height="50" relative="1" as="geometry">
                        <mxPoint x="380" y="180" as="sourcePoint"/>
                        <mxPoint x="380" y="100" as="targetPoint"/>
                    </mxGeometry>
                </mxCell>
                <mxCell id="EkK7eUQm3t-pUeyv8moK-15" value="" style="endArrow=none;dashed=1;html=1;rounded=0;strokeWidth=0.3;" edge="1" parent="yorJfVh0kJ0Bfh7YAZNg-1">
                    <mxGeometry width="50" height="50" relative="1" as="geometry">
                        <mxPoint x="300" y="180" as="sourcePoint"/>
                        <mxPoint x="380" y="180" as="targetPoint"/>
                    </mxGeometry>
                </mxCell>
                <mxCell id="EkK7eUQm3t-pUeyv8moK-16" value="" style="endArrow=none;dashed=1;html=1;rounded=0;strokeWidth=0.3;" edge="1" parent="yorJfVh0kJ0Bfh7YAZNg-1">
                    <mxGeometry width="50" height="50" relative="1" as="geometry">
                        <mxPoint x="300" y="100" as="sourcePoint"/>
                        <mxPoint x="380" y="100" as="targetPoint"/>
                    </mxGeometry>
                </mxCell>
                <mxCell id="EkK7eUQm3t-pUeyv8moK-17" value="i" style="text;html=1;align=center;verticalAlign=middle;whiteSpace=wrap;rounded=0;fontFamily=Times New Roman;fontSize=10;" vertex="1" parent="yorJfVh0kJ0Bfh7YAZNg-1">
                    <mxGeometry x="330" y="181" width="20" height="10" as="geometry"/>
                </mxCell>
                <mxCell id="EkK7eUQm3t-pUeyv8moK-18" value="i+1" style="text;html=1;align=center;verticalAlign=middle;whiteSpace=wrap;rounded=0;fontFamily=Times New Roman;fontSize=10;" vertex="1" parent="yorJfVh0kJ0Bfh7YAZNg-1">
                    <mxGeometry x="370.5" y="181" width="20" height="10" as="geometry"/>
                </mxCell>
                <mxCell id="EkK7eUQm3t-pUeyv8moK-19" value="i-1" style="text;html=1;align=center;verticalAlign=middle;whiteSpace=wrap;rounded=0;fontFamily=Times New Roman;fontSize=10;" vertex="1" parent="yorJfVh0kJ0Bfh7YAZNg-1">
                    <mxGeometry x="290.5" y="181" width="20" height="10" as="geometry"/>
                </mxCell>
                <mxCell id="EkK7eUQm3t-pUeyv8moK-20" value="j" style="text;html=1;align=center;verticalAlign=middle;whiteSpace=wrap;rounded=0;fontFamily=Times New Roman;fontSize=10;" vertex="1" parent="yorJfVh0kJ0Bfh7YAZNg-1">
                    <mxGeometry x="280" y="134.5" width="20" height="10" as="geometry"/>
                </mxCell>
                <mxCell id="EkK7eUQm3t-pUeyv8moK-21" value="j-1" style="text;html=1;align=center;verticalAlign=middle;whiteSpace=wrap;rounded=0;fontFamily=Times New Roman;fontSize=10;" vertex="1" parent="yorJfVh0kJ0Bfh7YAZNg-1">
                    <mxGeometry x="280" y="174" width="20" height="10" as="geometry"/>
                </mxCell>
                <mxCell id="EkK7eUQm3t-pUeyv8moK-22" value="j+1" style="text;html=1;align=center;verticalAlign=middle;whiteSpace=wrap;rounded=0;fontFamily=Times New Roman;fontSize=10;" vertex="1" parent="yorJfVh0kJ0Bfh7YAZNg-1">
                    <mxGeometry x="280" y="95" width="20" height="10" as="geometry"/>
                </mxCell>
                <mxCell id="EkK7eUQm3t-pUeyv8moK-23" value="i" style="text;html=1;align=center;verticalAlign=middle;whiteSpace=wrap;rounded=0;fontFamily=Times New Roman;fontSize=10;fontColor=#CC0000;" vertex="1" parent="yorJfVh0kJ0Bfh7YAZNg-1">
                    <mxGeometry x="310" y="181" width="20" height="10" as="geometry"/>
                </mxCell>
                <mxCell id="EkK7eUQm3t-pUeyv8moK-24" value="i+1" style="text;html=1;align=center;verticalAlign=middle;whiteSpace=wrap;rounded=0;fontFamily=Times New Roman;fontSize=10;fontColor=#CC0000;" vertex="1" parent="yorJfVh0kJ0Bfh7YAZNg-1">
                    <mxGeometry x="350" y="181" width="20" height="10" as="geometry"/>
                </mxCell>
                <mxCell id="EkK7eUQm3t-pUeyv8moK-25" value="j" style="text;html=1;align=center;verticalAlign=middle;whiteSpace=wrap;rounded=0;fontFamily=Times New Roman;fontSize=10;fontColor=#0000FF;" vertex="1" parent="yorJfVh0kJ0Bfh7YAZNg-1">
                    <mxGeometry x="280" y="154" width="20" height="10" as="geometry"/>
                </mxCell>
                <mxCell id="EkK7eUQm3t-pUeyv8moK-26" value="j+1" style="text;html=1;align=center;verticalAlign=middle;whiteSpace=wrap;rounded=0;fontFamily=Times New Roman;fontSize=10;fontColor=#0000FF;" vertex="1" parent="yorJfVh0kJ0Bfh7YAZNg-1">
                    <mxGeometry x="280" y="114" width="20" height="10" as="geometry"/>
                </mxCell>
            </root>
        </mxGraphModel>
    </diagram>
</mxfile>